<?xml version="1.0" standalone="no"?>
<!DOCTYPE svg PUBLIC "-//W3C//DTD SVG 20010904//EN"
 "http://www.w3.org/TR/2001/REC-SVG-20010904/DTD/svg10.dtd">
<svg version="1.0" xmlns="http://www.w3.org/2000/svg"
 width="225.000000pt" height="225.000000pt" viewBox="0 0 225.000000 225.000000"
 preserveAspectRatio="xMidYMid meet">
<metadata>
Created by potrace 1.16, written by Peter Selinger 2001-2019
</metadata>
<g transform="translate(0.000000,225.000000) scale(0.100000,-0.100000)"
fill="#000000" stroke="none">
<path d="M1029 1992 c-66 -39 -79 -52 -79 -79 0 -13 -4 -22 -10 -18 -5 3 -18
0 -28 -6 -15 -9 -29 -8 -68 4 -27 8 -74 21 -104 27 -30 7 -74 23 -98 37 -50
28 -64 23 -82 -32 -11 -32 -14 -34 -63 -37 l-52 -3 3 -34 c4 -53 -22 -74 -80
-67 -40 6 -49 4 -57 -13 -6 -11 -11 -31 -11 -44 0 -21 -8 -28 -42 -39 -37 -11
-43 -17 -41 -38 9 -118 35 -303 48 -339 8 -24 14 -45 13 -46 -2 0 -34 -16 -72
-35 -37 -19 -70 -39 -73 -45 -2 -7 1 -24 7 -39 10 -27 9 -27 -19 -21 -28 6
-32 2 -70 -57 -22 -35 -41 -68 -41 -75 0 -6 17 -25 37 -42 l37 -31 -27 -28
c-31 -32 -33 -57 -12 -109 22 -52 44 -73 75 -73 24 0 26 -3 22 -30 -3 -23 2
-35 19 -50 41 -35 101 -62 127 -57 15 3 31 -2 43 -14 12 -12 33 -19 57 -19 40
0 85 -27 202 -119 157 -124 455 -193 742 -171 130 10 273 39 350 71 60 25 167
93 230 146 24 20 60 47 81 60 65 41 77 81 77 268 0 127 -4 177 -21 245 -18 78
-19 94 -8 188 14 121 7 293 -16 369 -13 42 -21 54 -41 59 -38 10 -152 -1 -291
-27 -100 -18 -125 -20 -137 -9 -9 7 -16 20 -16 29 0 9 -8 28 -17 41 -10 14
-16 36 -15 50 1 14 -13 52 -31 85 -26 45 -40 61 -59 63 -20 2 -24 7 -20 27 3
20 -5 30 -58 65 -35 22 -71 40 -80 40 -9 0 -31 -16 -50 -35 l-34 -35 -33 35
c-38 42 -53 43 -114 7z m100 -72 c17 -27 37 -50 44 -50 7 0 27 20 45 45 17 25
37 45 44 45 7 0 30 -11 50 -23 l37 -23 -35 -54 c-47 -71 -34 -86 41 -45 30 16
56 27 58 24 3 -2 14 -23 26 -46 l21 -42 -56 -26 c-40 -18 -55 -30 -52 -43 3
-13 17 -18 71 -22 37 -3 67 -9 67 -15 -1 -11 1 -11 -152 6 l-108 12 -6 36 c-3
20 -9 50 -14 66 -4 17 -11 42 -14 58 -4 15 -13 27 -20 27 -16 0 -30 -36 -47
-128 -6 -34 -15 -65 -19 -67 -5 -3 -31 24 -58 59 -28 35 -67 76 -87 91 -48 37
-37 44 19 11 80 -47 97 -29 47 51 l-30 47 42 28 c23 15 45 28 49 28 3 0 20
-22 37 -50z m-379 -55 c132 -32 214 -79 270 -157 37 -51 37 -58 3 -58 -16 0
-53 -7 -83 -16 -87 -25 -99 -27 -117 -19 -10 4 -34 10 -53 12 -19 2 -39 8 -45
12 -5 4 -37 9 -70 10 -33 1 -64 6 -71 12 -14 11 -84 152 -84 169 0 9 12 10 44
6 44 -7 44 -7 51 26 10 47 12 48 48 34 17 -7 66 -21 107 -31z m-327 -168 c42
-30 45 -34 27 -45 -12 -7 -23 -33 -31 -72 -6 -33 -15 -63 -19 -65 -4 -3 -32
10 -63 28 -40 24 -57 40 -65 65 -11 34 -12 34 48 36 21 1 25 6 27 36 1 19 2
38 2 43 2 15 29 6 74 -26z m266 -109 l113 -21 -28 -22 c-44 -35 -12 -38 58 -5
112 53 189 64 413 64 188 -1 205 -2 276 -27 42 -14 95 -35 117 -46 30 -15 43
-18 48 -9 4 6 3 13 -2 15 -22 8 -38 22 -32 29 9 8 187 41 256 46 32 3 56 0 62
-7 12 -15 20 -145 9 -145 -5 0 -9 10 -9 23 0 36 -11 67 -24 67 -12 0 -72 -75
-96 -119 -11 -22 -14 -23 -25 -8 -12 16 -35 23 -35 11 0 -3 24 -43 54 -87 132
-200 164 -295 173 -504 8 -178 1 -217 -45 -260 -22 -21 -43 -32 -54 -30 -10 3
-15 1 -12 -4 3 -5 -8 -17 -25 -27 -17 -9 -31 -21 -31 -27 0 -5 -5 -3 -10 5 -8
12 -10 11 -10 -6 0 -24 -45 -59 -62 -48 -6 4 -8 3 -4 -4 6 -10 -51 -35 -70
-31 -5 1 -16 -1 -24 -4 -39 -16 -188 -38 -308 -47 -153 -11 -241 -2 -392 38
-19 5 -85 35 -147 66 -86 43 -111 60 -106 72 5 13 14 15 47 9 23 -4 105 -10
184 -14 84 -3 146 -10 150 -17 14 -21 87 -64 108 -64 12 0 48 17 80 39 l59 38
131 7 c72 3 151 9 177 12 44 6 47 5 56 -20 6 -14 15 -26 21 -26 5 0 10 -6 10
-14 0 -8 10 -18 22 -22 24 -7 48 15 80 75 12 22 24 31 43 31 15 0 25 6 25 15
0 16 -37 28 -82 28 -16 0 -28 5 -28 11 0 8 -3 8 -8 0 -15 -21 -206 -56 -337
-62 l-130 -5 -57 -39 c-34 -24 -62 -37 -70 -33 -7 4 -35 22 -63 40 -49 32 -54
33 -185 39 -74 3 -152 10 -172 16 -93 27 -208 46 -212 36 -2 -6 -5 -2 -5 9 -1
16 -3 17 -10 6 -20 -31 -53 34 -67 132 -3 26 -10 49 -14 52 -4 2 -5 -7 -2 -20
5 -27 3 -28 -22 -19 -13 5 -16 24 -16 99 0 159 65 334 179 485 30 39 46 69 40
74 -5 6 -16 3 -27 -7 -17 -16 -20 -14 -51 37 -42 71 -67 94 -84 77 -16 -16
-22 -215 -8 -265 8 -30 7 -45 -3 -65 -14 -26 -14 -25 -21 23 -10 66 0 324 14
360 13 33 12 33 220 -6z m-274 -402 c8 -80 -24 -206 -53 -206 -10 0 -57 -11
-105 -25 l-87 -25 -42 27 c-24 16 -47 31 -51 34 -13 9 23 79 40 79 7 0 31 -9
53 -20 22 -11 44 -20 50 -20 16 0 12 34 -10 86 -11 26 -19 48 -17 50 2 2 20
10 40 19 l37 15 22 -45 c17 -34 28 -45 45 -45 22 0 23 4 23 63 0 68 4 77 31
77 13 0 18 -13 24 -64z"/>
<path d="M1281 1450 c-67 -10 -105 -37 -109 -78 -6 -61 120 -265 173 -278 40
-10 91 14 144 69 111 115 152 200 115 238 -37 37 -217 64 -323 49z"/>
<path d="M596 1191 c-3 -5 1 -14 9 -21 12 -10 10 -16 -15 -43 -46 -49 -72
-128 -78 -238 l-5 -97 54 -15 c77 -22 239 -47 308 -47 97 0 100 27 20 178 -48
90 -93 150 -155 205 -87 77 -126 99 -138 78z m74 -61 c12 -8 13 -13 3 -27 -36
-52 -46 -92 -51 -201 -3 -95 -7 -112 -19 -108 -8 4 -26 9 -39 12 -32 8 -39 41
-25 123 13 85 32 130 72 176 34 38 37 39 59 25z"/>
<path d="M1770 1163 c-101 -79 -169 -161 -225 -271 -49 -96 -57 -128 -39 -147
28 -27 184 -16 374 28 l55 12 3 64 c2 35 -3 88 -10 119 -7 32 -12 62 -13 67 0
6 -8 19 -17 29 -10 11 -18 23 -18 27 0 4 -12 22 -27 40 -18 21 -24 34 -15 37
19 6 14 32 -5 31 -10 0 -38 -16 -63 -36z m56 -50 c15 -16 32 -40 40 -55 20
-39 44 -146 44 -199 0 -43 -2 -47 -27 -53 -16 -4 -35 -9 -43 -11 -13 -4 -15
11 -15 98 0 95 -2 108 -31 165 -21 42 -27 65 -20 72 15 15 25 12 52 -17z"/>
<path d="M1030 1119 c-74 -33 -78 -60 -20 -123 76 -83 126 -83 154 1 43 124
-14 177 -134 122z"/>
</g>
</svg>
