<?xml version="1.0" standalone="no"?>
<!DOCTYPE svg PUBLIC "-//W3C//DTD SVG 20010904//EN"
 "http://www.w3.org/TR/2001/REC-SVG-20010904/DTD/svg10.dtd">
<svg version="1.0" xmlns="http://www.w3.org/2000/svg"
 width="250.000000pt" height="250.000000pt" viewBox="0 0 250.000000 250.000000"
 preserveAspectRatio="xMidYMid meet">
<metadata>
Created by potrace 1.16, written by Peter Selinger 2001-2019
</metadata>
<g transform="translate(0.000000,250.000000) scale(0.100000,-0.100000)"
fill="#000000" stroke="none">
<path d="M1714 2421 c-102 -51 -232 -183 -292 -294 l-20 -38 -26 43 c-62 107
-217 207 -216 141 1 -17 1 -17 11 -1 9 17 12 17 42 2 18 -9 47 -28 66 -42 38
-28 111 -136 111 -164 0 -10 5 -18 10 -18 6 0 10 6 10 14 0 22 58 127 97 174
64 79 211 186 264 194 23 3 24 0 27 -60 3 -74 -24 -192 -67 -287 l-29 -64 51
21 c29 12 79 27 112 34 52 10 55 12 23 13 -21 1 -62 -8 -93 -20 -31 -12 -58
-19 -61 -17 -2 3 5 25 15 49 39 87 62 194 59 271 -4 88 -9 91 -94 49z"/>
<path d="M1147 2243 c-4 -3 -7 -48 -7 -98 0 -101 18 -162 72 -242 33 -49 33
-50 11 -56 -10 -3 20 -5 67 -6 47 -1 96 -4 110 -8 l25 -6 -27 22 c-20 16 -28
31 -28 54 l1 32 33 -39 33 -38 6 28 c9 41 63 131 87 144 18 10 20 8 20 -22 -1
-18 -9 -58 -20 -88 -25 -71 -25 -71 10 -54 39 20 100 30 100 16 0 -15 -61 -51
-99 -58 -38 -8 -37 -16 9 -46 76 -52 170 -196 185 -288 9 -50 8 -154 -1 -182
-18 -57 -271 -148 -466 -167 -163 -16 -353 8 -406 51 -13 11 -14 10 -7 -2 13
-24 -30 22 -51 55 -31 47 -44 96 -43 165 1 78 17 131 18 59 1 -44 22 -79 48
-79 15 0 50 42 63 74 l11 29 22 -30 c12 -17 37 -42 54 -57 28 -24 31 -31 22
-48 -6 -12 -9 -41 -6 -66 8 -70 63 -102 114 -67 21 15 53 91 53 127 0 10 7 18
15 18 26 0 28 28 7 73 -10 23 -25 60 -32 82 -18 56 -47 85 -86 85 -49 0 -51
-18 -2 -22 45 -3 50 -9 88 -103 7 -16 19 -42 26 -57 19 -36 18 -48 -5 -48 -14
0 -22 -10 -26 -32 -4 -18 -16 -52 -26 -75 -17 -40 -21 -43 -56 -42 -32 0 -34
2 -17 9 43 17 107 141 89 170 -8 14 -113 83 -148 98 -16 7 -35 9 -42 4 -12 -6
-12 -12 1 -37 l15 -30 -29 30 c-27 28 -28 32 -15 52 8 12 32 30 54 40 34 16
51 33 32 33 -16 0 -93 -52 -93 -63 -1 -7 -7 3 -15 21 -21 47 -69 39 -99 -16
-9 -15 -15 -22 -16 -16 0 22 81 133 129 176 63 57 134 94 223 118 52 13 64 19
41 19 -77 2 -214 -69 -299 -153 -127 -127 -162 -285 -94 -428 29 -62 116 -156
179 -193 58 -34 63 -45 22 -45 -24 0 -28 -3 -24 -20 4 -14 0 -20 -11 -20 -9 0
-33 -7 -53 -15 l-37 -16 27 -26 26 -27 -30 -33 c-16 -19 -29 -39 -29 -45 0
-14 -1 -15 43 44 33 44 35 47 17 53 -11 4 -20 11 -20 16 0 5 -1 12 -2 15 -2 4
22 15 52 24 30 10 49 18 43 19 -7 1 -13 6 -13 11 0 16 97 12 114 -5 8 -8 19
-15 25 -15 6 0 11 -11 11 -24 0 -32 36 -59 62 -45 10 5 18 19 18 29 0 11 6 20
14 20 8 0 17 7 20 16 5 13 16 15 54 11 26 -3 56 -8 68 -12 13 -4 27 -1 37 9 8
9 31 16 51 16 19 0 38 5 41 10 4 6 18 10 33 10 15 0 45 2 67 5 l40 6 -23 -20
-22 -19 57 -29 c46 -22 53 -29 36 -31 -27 -4 -30 -27 -5 -37 16 -6 16 -7 -1
-16 -13 -8 -15 -14 -7 -30 15 -27 -4 -24 -23 3 -13 19 -16 20 -16 6 -1 -12 -9
-18 -25 -18 -46 0 -76 18 -83 50 -3 17 -10 33 -14 36 -13 8 -11 -8 6 -56 18
-52 20 -100 3 -100 -7 0 -27 9 -45 19 -33 21 -45 19 -36 -5 5 -15 -13 -44 -28
-44 -5 0 -24 14 -44 31 -21 19 -35 26 -35 18 0 -8 -11 -2 -25 14 l-24 27 -15
-27 -14 -28 -22 38 c-12 21 -25 36 -27 33 -3 -3 3 -20 14 -38 21 -35 53 -50
53 -24 0 21 12 20 32 -3 16 -19 16 -20 -2 -26 -11 -3 -33 -22 -49 -42 -29 -35
-33 -37 -94 -37 -35 -1 -70 4 -78 10 -8 6 -35 18 -61 28 -34 12 -48 23 -48 36
0 10 5 22 10 25 6 3 10 -1 10 -9 0 -34 25 -28 61 14 50 58 42 64 -10 8 l-40
-43 -1 28 c0 24 -3 27 -21 22 -18 -6 -20 -4 -14 16 7 20 5 22 -6 12 -8 -6 -30
-16 -49 -22 l-35 -11 32 3 c38 4 49 -13 57 -91 10 -98 70 -178 174 -231 23
-12 42 -26 42 -31 0 -5 -20 -23 -44 -39 l-44 -31 -47 65 c-47 66 -70 85 -102
85 -11 0 -5 -7 17 -18 31 -15 67 -55 111 -121 l15 -24 48 27 c46 25 49 26 61
9 12 -16 9 -23 -23 -56 -20 -20 -42 -37 -49 -37 -7 0 -13 -3 -13 -7 1 -16 59
-118 60 -105 0 7 -9 30 -20 52 l-20 39 76 76 c68 68 81 77 117 78 39 2 40 1
69 -55 26 -52 28 -61 18 -96 -15 -49 -10 -86 13 -90 47 -9 96 91 108 222 l9
89 55 55 c84 84 143 223 105 247 -14 9 -12 63 3 68 9 3 9 8 -3 21 -13 16 -12
20 4 31 17 13 16 14 -6 28 -12 8 -36 21 -51 29 -25 13 -27 16 -13 27 24 20 19
31 -11 31 l-28 0 42 40 c79 74 117 158 128 285 10 119 -23 228 -100 330 l-34
44 27 4 c24 4 24 4 -6 6 -30 1 -92 36 -92 51 0 3 18 14 40 24 47 21 86 64 70
80 -7 7 -27 7 -62 -1 -29 -6 -55 -9 -57 -7 -2 1 2 17 8 35 16 45 14 119 -2
119 -19 0 -72 -59 -97 -108 l-21 -44 -26 26 c-40 40 -56 34 -51 -19 l3 -46
-50 3 c-47 3 -51 5 -86 55 -54 78 -73 148 -66 249 2 46 4 84 3 84 -2 0 -6 -3
-9 -7z m520 -1442 c26 -18 26 -21 13 -55 -5 -14 -17 -26 -25 -26 -9 0 -42 -11
-75 -25 -33 -14 -63 -25 -68 -25 -5 0 -14 12 -21 27 -7 15 -21 33 -32 41 -10
7 -19 22 -19 32 0 17 2 18 28 4 15 -7 37 -14 50 -14 21 0 22 3 16 35 l-6 35
58 -6 c33 -4 69 -14 81 -23z m-287 -73 c0 -5 -10 -2 -22 6 -31 22 -48 20 -20
-2 23 -18 23 -18 5 -54 -10 -20 -25 -39 -34 -41 -9 -2 -19 -17 -22 -33 -4 -16
-11 -36 -17 -44 -9 -13 -12 -12 -25 4 -17 22 -20 82 -6 119 5 14 29 38 53 54
39 27 45 28 66 15 12 -8 22 -19 22 -24z m79 -7 c23 -23 61 -139 61 -185 0 -58
-28 -244 -40 -268 -15 -27 -51 -68 -61 -68 -13 0 -17 41 -7 77 14 51 0 90 -67
192 -52 80 -55 87 -44 118 12 37 29 44 29 13 0 -12 7 -35 16 -51 22 -43 46
-34 65 25 9 26 20 51 25 55 5 3 16 15 24 26 14 19 14 19 -14 -1 -17 -12 -35
-39 -45 -68 -9 -26 -21 -48 -26 -48 -17 0 -38 69 -31 104 7 38 57 98 80 98 9
0 25 -9 35 -19z"/>
<path d="M1318 1543 c-33 -21 -48 -53 -48 -103 0 -100 124 -110 161 -13 15 40
10 70 -17 102 -29 35 -56 39 -96 14z"/>
</g>
</svg>
