<?xml version="1.0" standalone="no"?>
<!DOCTYPE svg PUBLIC "-//W3C//DTD SVG 20010904//EN"
 "http://www.w3.org/TR/2001/REC-SVG-20010904/DTD/svg10.dtd">
<svg version="1.0" xmlns="http://www.w3.org/2000/svg"
 width="900.000000pt" height="512.000000pt" viewBox="0 0 900.000000 512.000000"
 preserveAspectRatio="xMidYMid meet">
<metadata>
Created by potrace 1.16, written by Peter Selinger 2001-2019
</metadata>
<g transform="translate(0.000000,512.000000) scale(0.100000,-0.100000)"
fill="#000000" stroke="none">
<path d="M4277 5109 c-321 -26 -657 -124 -952 -278 -281 -146 -500 -314 -717
-551 -580 -633 -802 -1534 -583 -2367 48 -182 92 -299 180 -478 128 -260 253
-440 449 -643 225 -232 432 -384 711 -522 188 -93 302 -136 488 -185 1063
-280 2193 159 2795 1085 391 601 510 1363 322 2066 -142 531 -478 1030 -920
1362 -512 385 -1133 564 -1773 511z m461 -249 c697 -75 1316 -456 1704 -1050
226 -345 351 -745 365 -1166 17 -495 -106 -937 -374 -1349 -312 -479 -815
-838 -1363 -974 -178 -44 -301 -61 -495 -68 -1156 -41 -2160 785 -2357 1937
-38 223 -34 566 8 788 189 992 1000 1757 1991 1877 134 16 392 18 521 5z"/>
<path d="M3434 3466 c-29 -29 -34 -41 -34 -79 0 -56 34 -102 88 -117 41 -11
1978 -15 2045 -3 78 12 128 104 93 171 -34 66 46 62 -1109 62 l-1049 0 -34
-34z"/>
<path d="M3465 2666 c-42 -18 -65 -57 -65 -109 0 -49 28 -89 75 -107 17 -6
396 -10 1041 -10 1104 0 1062 -2 1100 56 36 55 17 142 -38 170 -39 20 -2067
20 -2113 0z"/>
<path d="M3483 1849 c-49 -14 -83 -62 -83 -116 0 -38 5 -50 34 -79 l34 -34
1044 0 c967 0 1045 1 1068 17 35 24 48 43 55 81 7 40 -17 94 -53 119 -26 17
-81 18 -1047 20 -602 1 -1033 -2 -1052 -8z"/>
</g>
</svg>
