<?xml version="1.0" standalone="no"?>
<!DOCTYPE svg PUBLIC "-//W3C//DTD SVG 20010904//EN"
 "http://www.w3.org/TR/2001/REC-SVG-20010904/DTD/svg10.dtd">
<svg version="1.0" xmlns="http://www.w3.org/2000/svg"
 width="900.000000pt" height="893.000000pt" viewBox="0 0 900.000000 893.000000"
 preserveAspectRatio="xMidYMid meet">
<metadata>
Created by potrace 1.16, written by Peter Selinger 2001-2019
</metadata>
<g transform="translate(0.000000,893.000000) scale(0.100000,-0.100000)"
fill="#000000" stroke="none">
<path d="M1720 8923 c-241 -20 -545 -118 -767 -249 -519 -306 -856 -838 -913
-1444 -11 -117 -11 -3354 0 -4295 4 -338 11 -487 13 -267 0 17 3 20 13 11 10
-8 12 -4 10 18 -1 15 -5 33 -9 40 -4 6 -3 15 3 18 6 4 10 3 9 -2 -1 -4 0 -10
1 -13 1 -3 4 -23 5 -45 4 -54 4 -55 13 -55 4 0 7 16 6 35 -1 19 1 33 6 30 4
-2 5 -15 3 -29 -3 -13 1 -27 7 -31 9 -5 10 -2 6 13 -4 11 -2 23 4 27 8 5 7 12
-2 23 -12 15 -11 16 5 3 12 -10 15 -17 7 -25 -19 -19 -10 -29 10 -11 l20 18
-21 23 c-16 17 -18 24 -7 30 7 4 10 4 6 -1 -9 -10 11 -37 22 -30 10 6 8 -15
-3 -32 -4 -6 -3 -14 2 -17 5 -3 12 2 17 12 11 26 11 36 0 52 -6 8 -6 12 -2 8
5 -4 16 -2 25 5 14 10 14 10 5 -3 -6 -8 -10 -23 -9 -32 2 -10 -1 -20 -6 -24
-5 -3 -9 -10 -9 -16 0 -6 9 -3 19 6 11 10 18 26 16 37 -2 10 0 21 4 23 4 3 8
-7 8 -22 1 -51 3 -63 11 -58 5 3 8 24 7 46 -1 22 1 43 5 45 4 3 6 -9 5 -25 -1
-17 4 -35 13 -42 13 -11 14 -9 8 12 -6 24 -6 24 6 5 17 -27 44 -26 40 0 -4 20
-3 20 11 0 11 -14 12 -24 5 -33 -6 -7 -9 -15 -6 -17 3 -3 11 2 18 11 11 12 11
20 2 34 -8 13 -8 21 -2 25 6 4 10 3 9 -2 -1 -4 3 -19 9 -33 6 -14 11 -18 12
-10 0 13 1 13 10 0 10 -15 11 -13 14 29 0 11 4 23 8 27 4 3 6 -3 3 -14 -2 -12
0 -24 6 -27 5 -4 9 -15 9 -26 0 -10 4 -19 9 -19 6 0 8 9 5 20 -2 11 -6 30 -9
41 -2 12 -1 18 3 15 7 -7 8 -11 11 -37 0 -5 5 -8 10 -5 10 7 9 25 -2 42 -3 6
3 20 16 30 l22 19 -18 -22 c-11 -13 -14 -23 -8 -27 5 -4 8 -15 6 -26 -2 -11 0
-22 6 -25 8 -5 13 14 11 36 -1 4 9 15 21 25 21 18 21 18 7 0 -19 -24 -24 -63
-9 -72 9 -5 10 -2 6 9 -3 9 -2 19 4 22 5 4 7 10 4 15 -3 5 -1 11 4 14 5 3 7
-11 5 -31 -2 -22 0 -33 6 -27 14 14 19 57 9 70 -6 7 -3 16 8 25 16 13 17 12 5
-3 -8 -10 -9 -19 -3 -22 9 -6 6 -50 -5 -67 -2 -4 0 -10 5 -13 5 -4 12 4 14 16
l4 23 2 -23 c0 -13 5 -21 11 -17 5 3 6 15 1 28 -8 22 -7 54 3 64 3 3 5 -5 4
-18 -2 -49 2 -65 11 -50 5 8 8 23 5 34 -2 11 0 16 4 13 4 -4 8 -11 8 -14 6
-29 18 -51 25 -46 5 3 5 14 -1 25 -6 10 -8 19 -4 19 3 0 2 6 -4 13 -8 9 -8 17
0 27 8 13 9 12 5 -2 -3 -9 -3 -19 1 -23 7 -6 8 -10 11 -36 0 -5 5 -8 10 -5 11
7 9 25 -4 46 -8 13 -7 13 8 1 9 -7 15 -17 12 -21 -3 -4 2 -13 10 -20 13 -11
15 -9 12 8 -2 11 -9 28 -17 39 -8 10 -10 15 -6 11 5 -4 16 -2 25 5 14 10 14
10 4 -4 -7 -9 -9 -19 -5 -23 7 -7 8 -11 11 -37 0 -5 5 -8 10 -5 11 7 9 25 -4
46 -7 12 -6 13 7 3 8 -7 19 -9 24 -5 4 4 3 0 -4 -9 -10 -13 -9 -19 5 -30 15
-12 16 -12 10 3 -3 10 -2 20 4 24 7 4 6 10 -1 19 -8 10 -8 15 2 21 7 4 10 4 6
-1 -4 -4 -3 -14 3 -21 6 -8 7 -14 0 -18 -6 -4 -8 -13 -5 -21 4 -8 10 -12 15
-9 5 3 7 9 4 14 -3 5 -1 12 5 15 8 5 8 11 1 19 -8 9 -7 13 3 13 14 0 16 -14 3
-33 -4 -7 1 -18 10 -25 15 -12 16 -12 10 6 -7 18 -6 19 6 3 8 -10 17 -15 20
-11 4 3 1 13 -5 21 -15 17 -20 44 -7 36 5 -3 7 -9 4 -14 -3 -4 2 -14 11 -21 9
-7 19 -22 23 -33 5 -11 10 -15 14 -9 4 6 -2 22 -13 35 -14 18 -15 25 -5 25 8
0 13 -3 12 -6 -1 -3 3 -7 8 -8 6 -2 10 6 10 16 0 11 3 22 6 25 3 4 5 -5 5 -18
-1 -14 -5 -28 -9 -32 -17 -17 -5 -25 13 -9 11 10 17 22 14 27 -3 4 0 7 7 6 7
-2 13 2 14 9 0 6 3 14 7 18 18 18 -1 -28 -20 -48 -12 -13 -19 -26 -16 -30 3
-3 17 6 31 21 14 15 20 20 14 11 -15 -22 -1 -33 15 -11 9 13 10 20 1 32 -10
13 -10 13 5 1 16 -12 16 -15 3 -34 -24 -35 -17 -44 9 -12 23 28 23 31 8 50 -9
11 -13 17 -8 13 5 -4 16 -2 25 5 14 10 14 10 3 -5 -9 -11 -10 -18 -2 -23 8 -5
8 -11 1 -19 -6 -7 -8 -16 -4 -19 3 -4 12 1 19 11 9 13 10 20 1 32 -11 13 -10
13 6 1 12 -10 15 -17 7 -25 -19 -19 -10 -29 10 -11 18 17 19 20 4 36 -12 14
-13 18 -2 25 7 4 10 3 5 -1 -4 -5 0 -16 9 -26 10 -11 12 -19 4 -24 -5 -3 -8
-11 -4 -16 3 -6 12 -2 19 8 11 15 11 21 -1 34 -12 14 -12 16 1 16 8 0 13 -3
10 -5 -3 -3 0 -11 6 -18 7 -8 7 -14 -1 -19 -5 -3 -10 -11 -10 -17 0 -6 9 -3
20 7 16 15 18 21 7 34 -11 14 -10 14 6 2 11 -9 14 -18 9 -23 -12 -12 -3 -50 9
-43 4 3 6 12 3 19 -3 8 0 17 6 21 8 5 6 13 -7 28 l-18 22 23 -19 c15 -13 19
-23 12 -30 -15 -15 -12 -30 3 -17 10 8 17 7 25 -1 13 -13 17 2 4 17 -4 6 -5 9
-3 8 2 -2 11 3 20 10 14 10 14 10 4 -3 -18 -24 -2 -39 32 -31 3 0 1 10 -4 20
-8 14 -7 22 3 30 10 9 2 31 -41 115 -152 298 -273 659 -333 996 -17 100 -50
352 -50 387 0 10 246 13 1213 13 l1212 0 23 -83 c126 -451 511 -797 972 -872
608 -98 1192 273 1363 865 l25 85 1211 3 1211 2 0 -33 c0 -49 -27 -257 -50
-387 -66 -370 -222 -803 -404 -1119 -58 -101 -73 -143 -46 -126 5 3 13 -2 18
-12 5 -9 17 -17 25 -19 11 -1 14 5 11 26 -3 16 0 32 7 36 9 5 10 2 6 -9 -3 -9
-2 -19 3 -22 5 -3 7 -13 4 -23 -5 -13 -4 -14 4 -3 6 8 8 25 6 38 -6 29 4 30
15 1 6 -15 5 -29 -2 -38 -8 -9 -4 -9 9 2 28 24 41 23 20 -1 -12 -13 -14 -21
-6 -26 6 -4 9 -1 8 7 -2 7 2 12 9 11 7 -2 10 6 8 17 -2 11 0 22 6 25 9 6 10 2
13 -34 0 -11 4 -22 7 -26 4 -3 5 10 3 30 -3 31 -1 35 11 25 8 -6 11 -19 8 -28
-3 -9 -3 -14 1 -11 4 4 9 17 11 29 6 34 25 49 21 19 -1 -14 -6 -31 -11 -39 -7
-13 -6 -13 7 -2 11 9 18 10 23 2 12 -19 25 0 21 31 -2 16 0 32 5 35 5 3 10 -2
10 -10 1 -9 2 -22 4 -28 1 -7 -4 -23 -12 -35 -8 -14 -9 -24 -3 -28 6 -4 9 -3
8 2 -4 14 23 54 32 48 5 -3 7 3 5 15 -2 11 0 22 4 25 5 2 11 -6 13 -20 5 -26
-13 -50 -28 -37 -4 4 -3 0 4 -9 6 -9 10 -19 7 -22 -3 -4 -2 -4 3 -1 4 3 7 11
7 17 1 7 6 11 12 10 7 -1 9 11 6 34 -3 24 -2 33 6 29 6 -4 9 -11 6 -16 -3 -5
-1 -11 4 -15 6 -3 7 -13 4 -23 -3 -9 -3 -14 2 -10 4 4 9 20 11 35 3 39 5 41
13 13 4 -14 4 -30 -1 -37 -5 -7 -5 -14 2 -18 6 -4 9 -2 8 3 -2 6 2 10 7 11 6
1 10 -3 10 -9 0 -17 22 -33 30 -21 3 6 2 10 -3 9 -6 -2 -10 2 -10 7 0 6 3 9 7
8 7 -2 11 13 12 50 0 9 5 15 10 11 6 -3 9 -15 6 -25 -3 -11 -1 -16 5 -13 5 3
8 15 5 25 -3 10 -2 21 3 24 12 7 19 -30 9 -48 -6 -10 -5 -18 1 -22 6 -4 7 -11
4 -17 -4 -7 -2 -8 5 -4 8 5 9 12 2 20 -6 7 -6 17 -1 26 9 14 11 13 14 -9 0 -5
4 -13 8 -17 4 -4 2 -14 -5 -23 -11 -14 -10 -14 6 -2 12 10 14 17 7 26 -7 9 -6
16 5 25 8 7 15 19 15 27 0 8 5 11 11 8 7 -5 5 -15 -6 -31 -8 -13 -14 -24 -13
-25 28 -8 38 -6 29 5 -8 9 -6 18 5 32 15 18 15 18 9 -3 -3 -12 -1 -24 5 -28 6
-3 7 -11 4 -17 -4 -7 -2 -8 5 -4 6 4 9 11 6 16 -3 4 2 13 10 20 13 11 15 9 11
-11 -3 -13 -5 -24 -6 -24 -1 0 -3 -8 -5 -18 -2 -11 0 -16 3 -12 4 4 8 11 8 16
1 5 3 11 4 14 4 8 7 17 15 53 5 23 10 29 16 21 4 -7 3 -22 -2 -33 -8 -17 -6
-16 11 4 15 17 20 19 16 8 -16 -49 -15 -50 8 -8 14 25 25 38 25 30 1 -8 -3
-22 -9 -30 -5 -8 -5 -19 -1 -25 9 -13 8 -26 -3 -45 -7 -12 -7 -13 5 -2 8 7 14
18 14 25 1 7 7 11 14 9 7 -1 10 2 7 7 -4 5 -2 12 3 15 5 3 7 15 4 25 -3 10 -1
21 4 24 12 7 11 -83 -1 -103 -7 -12 -7 -13 5 -2 18 16 22 125 4 118 -6 -2 -18
0 -26 4 -8 5 -19 4 -28 -3 -12 -10 -13 -9 -6 3 8 13 7 13 -8 1 -14 -11 -17
-11 -17 0 0 11 -2 11 -10 -1 -9 -13 -10 -13 -10 0 0 9 -3 11 -8 5 -9 -13 -83
-14 -75 -1 4 5 0 6 -8 0 -21 -13 -39 -14 -39 -1 0 7 -5 5 -10 -3 -9 -13 -10
-13 -10 0 0 13 -1 13 -10 0 -9 -13 -10 -13 -10 0 0 12 -2 12 -9 1 -6 -9 -10
-10 -16 -2 -5 9 -11 9 -23 -1 -9 -7 -13 -8 -9 -2 7 13 -42 12 -63 -1 -13 -8
-13 -6 0 10 8 10 10 16 5 13 -6 -4 -12 2 -12 13 -2 22 1 23 28 9 13 -7 19 -7
19 0 0 5 5 10 11 10 5 0 8 -4 4 -9 -3 -5 0 -13 6 -17 12 -7 12 -5 -4 63 -3 13
-2 25 3 28 4 3 7 -2 6 -11 -4 -26 20 -88 35 -93 12 -3 12 -1 0 13 -8 9 -11 19
-8 23 4 3 1 13 -6 22 -10 14 -10 14 5 3 10 -8 14 -20 11 -30 -6 -15 -5 -15 10
-3 16 12 16 16 2 31 -13 14 -13 17 0 17 8 0 12 -4 10 -8 -3 -3 2 -12 10 -19
11 -9 12 -16 5 -25 -7 -9 -7 -15 -1 -19 15 -10 24 33 11 49 -7 8 -9 15 -5 15
4 0 2 6 -4 14 -9 10 -7 17 6 27 16 12 17 12 6 -2 -7 -9 -9 -19 -5 -23 4 -4 8
-11 8 -14 7 -36 18 -52 25 -41 4 7 3 19 -3 26 -6 7 -7 13 -3 13 4 0 2 6 -4 13
-8 10 -7 14 3 14 8 0 13 -8 11 -18 -2 -10 0 -21 6 -24 5 -4 5 -13 -1 -25 -6
-11 -6 -21 -1 -24 5 -3 11 4 14 15 4 15 11 20 22 16 12 -5 14 -1 11 17 -3 16
3 30 17 43 22 18 22 18 6 -2 -8 -11 -14 -26 -13 -32 1 -7 2 -18 3 -24 0 -5 5
-8 10 -4 6 3 8 14 6 25 -2 10 4 25 13 32 13 11 14 11 7 -2 -15 -24 -14 -38 1
-51 13 -10 14 -8 10 16 -3 15 -2 24 2 20 4 -3 8 -19 8 -33 3 -39 3 -42 12 -42
12 0 7 66 -6 83 -10 12 -9 17 5 28 15 11 16 11 6 -1 -10 -11 -9 -18 5 -33 9
-10 16 -21 15 -23 -2 -2 0 -3 5 -1 4 1 6 6 4 10 -1 5 2 6 8 2 8 -5 8 -11 1
-19 -6 -7 -8 -16 -4 -19 3 -4 12 1 19 11 9 13 9 20 1 30 -12 15 -20 48 -9 37
4 -4 7 -10 7 -13 0 -4 4 -13 9 -20 6 -10 11 -11 24 0 10 7 7 1 -6 -13 -30 -34
-28 -48 3 -19 l26 24 6 -23 c4 -17 8 -19 14 -10 5 8 2 20 -7 30 -12 14 -12 18
8 35 l23 19 -18 -22 c-11 -13 -14 -23 -8 -27 5 -4 14 2 20 11 6 10 11 13 11 7
0 -6 -3 -14 -7 -18 -4 -3 -8 -12 -9 -19 -1 -7 -5 -21 -9 -32 -6 -17 -4 -16 13
4 12 15 24 21 32 16 8 -5 11 -3 8 6 -3 8 -11 13 -17 11 -7 -1 -10 2 -6 8 3 6
10 8 15 5 9 -5 25 24 21 40 -2 6 1 7 5 3 4 -4 13 -3 20 3 8 7 14 6 20 -2 5 -8
3 -9 -6 -4 -9 6 -11 4 -5 -5 6 -9 4 -11 -5 -5 -9 6 -11 4 -5 -5 6 -9 4 -11 -6
-5 -8 5 -10 4 -6 0 12 -14 37 -15 34 -2 -1 7 6 11 16 10 16 -1 14 4 -10 30
-15 18 -19 24 -7 14 11 -9 24 -14 29 -10 4 5 4 2 0 -6 -6 -11 -4 -13 7 -8 9 3
21 0 27 -6 15 -15 14 2 -1 23 -7 9 -3 5 10 -8 19 -20 27 -18 24 9 -1 3 6 6 13
6 12 0 12 -3 3 -15 -9 -11 -9 -13 3 -12 38 6 70 -1 63 -12 -4 -8 -3 -10 2 -5
5 5 10 13 10 18 1 5 3 11 4 14 1 3 3 10 4 15 0 6 4 10 9 10 4 0 10 0 14 0 3 0
-2 -9 -12 -20 -10 -11 -15 -21 -12 -21 10 -2 26 -6 35 -9 4 -1 12 -1 17 0 6 1
-1 -10 -14 -24 -28 -30 -43 -36 -17 -7 11 12 14 21 7 26 -6 3 -11 0 -11 -7 0
-11 -2 -10 -9 0 -7 11 -9 10 -14 -3 -4 -10 -3 -14 4 -10 6 4 9 -1 7 -11 -2
-11 2 -18 10 -16 13 2 17 -14 5 -21 -5 -2 -2 -2 5 -1 6 2 12 -1 12 -6 0 -6 -6
-10 -12 -10 -9 0 -10 -3 -2 -8 6 -4 10 -14 9 -23 -2 -10 4 -16 16 -15 10 1 18
-3 17 -9 -2 -5 -9 -9 -18 -7 -13 2 -13 2 0 -7 10 -7 20 -5 32 6 17 15 27 5 11
-11 -4 -4 -8 -23 -8 -41 -1 -19 1 -32 4 -29 3 3 6 19 6 35 0 16 4 28 10 27 5
-2 9 -10 7 -18 -3 -13 -2 -13 7 0 10 14 15 7 12 -13 -1 -5 3 -5 9 -2 8 5 6 13
-4 24 -9 10 -13 20 -10 24 4 3 15 -4 24 -16 17 -21 17 -23 2 -42 -13 -15 -11
-15 9 3 14 12 28 20 31 17 3 -3 4 8 3 25 -1 17 1 33 6 36 5 3 10 -4 10 -15 1
-12 2 -27 3 -33 1 -7 -2 -18 -6 -25 -5 -6 -5 -14 2 -18 6 -4 10 -3 9 2 -1 4 0
10 1 13 1 3 3 30 4 60 2 35 0 48 -5 35 -5 -13 -8 -15 -8 -5 -1 13 -3 13 -12 0
-9 -12 -10 -11 -5 5 6 20 6 20 -9 1 -11 -14 -15 -16 -15 -5 0 12 -2 12 -10 -1
-8 -12 -10 -12 -11 5 l0 20 -8 -20 -8 -20 -5 20 -6 20 -1 -20 c-1 -17 -3 -18
-11 -5 -9 13 -10 13 -10 0 0 -13 -1 -13 -10 0 -9 13 -10 13 -10 0 0 -17 -30
35 -35 62 -2 9 5 24 16 33 10 10 16 22 12 28 -4 6 -1 7 6 2 9 -5 7 -13 -9 -30
-19 -21 -20 -23 -3 -36 15 -12 16 -12 10 3 -3 10 1 22 11 30 15 11 15 11 5 -2
-8 -10 -9 -21 -3 -30 9 -14 11 -13 14 9 0 5 4 13 8 17 4 4 3 12 -2 19 -7 8 -5
12 4 12 8 0 12 -7 11 -16 -2 -9 -4 -16 -5 -16 -7 0 -6 -35 1 -46 7 -11 9 -10
9 5 0 12 5 16 16 12 10 -4 14 -2 11 6 -2 7 -10 12 -16 10 -7 -1 -9 2 -5 9 5 9
12 6 24 -9 10 -12 20 -18 24 -15 3 4 -1 14 -10 24 -10 11 -12 19 -4 24 5 3 7
11 4 17 -4 7 -2 8 5 4 9 -6 9 -11 1 -21 -7 -8 -7 -16 -2 -19 10 -6 35 18 27
26 -3 2 2 5 10 5 13 0 12 -4 -3 -21 -10 -12 -17 -27 -16 -33 1 -7 2 -20 3 -28
0 -8 5 -15 9 -15 5 0 7 13 6 30 -1 17 5 34 15 42 14 11 14 11 4 -3 -10 -12
-10 -18 0 -29 9 -10 9 -11 0 -6 -8 5 -13 1 -13 -9 0 -9 4 -14 9 -11 4 3 8 -30
7 -73 -1 -44 2 -77 6 -75 4 3 8 602 9 1332 0 730 1 1788 2 2352 2 1111 2 1102
-54 1332 -160 656 -689 1183 -1359 1354 -201 51 -11 48 -3005 49 -1529 1
-2800 0 -2825 -2z m1001 -731 c2 -28 7 -52 11 -52 5 0 7 -4 4 -9 -4 -5 7 -20
22 -33 51 -43 49 -49 -11 -42 -54 6 -55 6 -102 -37 l-47 -43 7 58 8 59 -49 43
-49 43 50 -3 c28 -2 56 2 64 8 12 9 13 8 6 -4 -8 -13 -7 -13 10 0 11 8 30 28
43 43 14 15 26 26 28 25 1 -2 4 -27 5 -56z m2149 -247 c959 -113 1821 -612
2401 -1390 271 -364 466 -777 579 -1225 38 -150 77 -373 86 -490 3 -47 7 -89
8 -95 1 -7 -63 -9 -71 -1 -1 1 -7 47 -13 102 -88 806 -480 1584 -1073 2125
-134 122 -311 261 -321 252 -3 -4 -6 -2 -6 3 0 16 -58 55 -65 44 -4 -6 -1 -9
7 -8 7 2 12 -3 10 -10 -1 -6 1 -11 5 -11 19 3 33 -2 33 -12 0 -5 -5 -7 -11 -4
-6 4 -5 -1 2 -12 14 -23 4 -77 -12 -68 -6 4 -6 12 -1 18 4 7 8 17 7 22 -1 16
-24 51 -25 38 0 -6 4 -14 9 -17 14 -9 5 -41 -10 -38 -8 2 -5 -6 7 -20 22 -23
22 -54 1 -41 -8 5 -8 2 0 -8 10 -12 9 -20 -2 -37 -9 -11 -15 -25 -14 -29 3
-20 -2 -34 -10 -28 -6 3 -8 14 -6 25 2 12 0 18 -4 15 -8 -4 -8 -40 -1 -70 5
-20 0 -36 -10 -30 -5 3 -8 11 -6 18 1 7 1 9 -1 4 -3 -4 -10 -4 -15 -1 -6 4 -8
2 -4 -4 3 -6 2 -13 -4 -17 -6 -4 -4 -14 5 -29 13 -20 13 -25 0 -42 -15 -18
-15 -18 -10 7 5 18 1 30 -12 40 -17 13 -17 13 -4 -4 13 -16 12 -23 -4 -53 -13
-25 -21 -31 -27 -22 -7 10 -8 9 -6 -2 3 -24 -12 -61 -23 -54 -6 4 -6 10 0 18
8 9 7 13 -3 13 -16 0 -15 -19 2 -39 20 -24 1 -29 -20 -5 -11 12 -17 17 -14 10
4 -6 2 -14 -4 -18 -7 -4 -7 -12 0 -25 15 -28 11 -38 -6 -15 -11 14 -15 15 -14
5 4 -27 0 -41 -10 -35 -5 3 -7 13 -4 23 5 14 4 14 -4 2 -6 -8 -7 -19 -2 -25 5
-6 1 -20 -10 -35 -21 -27 -26 -21 -10 10 7 13 7 21 0 25 -8 5 -7 12 2 23 12
15 11 16 -5 3 -11 -9 -14 -17 -8 -25 6 -7 6 -17 1 -26 -5 -8 -7 -25 -4 -36 3
-12 0 -25 -7 -30 -8 -5 -11 -2 -7 8 4 8 2 21 -2 29 -5 7 -5 18 1 25 7 8 6 15
-2 20 -7 4 -9 3 -5 -4 3 -6 2 -13 -3 -17 -6 -3 -7 -13 -4 -22 5 -12 3 -14 -7
-8 -8 5 -11 4 -6 -3 3 -6 2 -13 -4 -17 -5 -3 -10 0 -10 7 0 9 -3 9 -10 -2 -6
-9 -6 -18 0 -24 19 -19 10 -29 -10 -11 -16 15 -18 21 -7 34 11 14 10 14 -5 2
-10 -7 -16 -17 -13 -21 3 -5 1 -11 -5 -15 -6 -4 -7 -13 -1 -23 10 -20 3 -45
-9 -37 -5 3 -7 12 -4 19 3 8 1 17 -5 21 -7 3 -8 0 -5 -9 4 -11 0 -14 -15 -11
-15 3 -18 0 -14 -12 4 -10 2 -14 -4 -10 -6 4 -16 0 -23 -8 -10 -12 -16 -13
-29 -3 -13 10 -12 8 2 -8 27 -32 20 -40 -10 -13 -16 13 -23 18 -16 10 13 -15
-3 -64 -19 -55 -5 3 -4 12 2 19 8 9 8 15 0 20 -6 4 -9 1 -8 -7 2 -7 -3 -12
-10 -10 -9 2 -11 -2 -5 -10 8 -14 9 -18 12 -45 2 -16 3 -15 11 2 l9 20 1 -20
1 -20 10 20 c7 16 8 14 4 -9 -6 -26 -4 -28 9 -17 9 7 14 17 11 21 -3 5 -2 16
1 25 5 12 9 13 14 5 5 -9 9 -9 14 -1 4 6 2 11 -3 11 -6 0 -11 5 -11 11 0 8 4
8 14 0 11 -9 17 -6 30 14 9 14 21 23 26 20 6 -3 7 2 4 12 -5 14 -4 15 4 4 8
-11 11 -9 17 9 6 18 9 20 16 9 5 -8 6 -22 3 -32 -3 -11 2 -28 13 -40 12 -14
13 -18 2 -9 -9 6 -19 8 -23 4 -4 -4 -7 -2 -6 3 5 23 -1 46 -9 40 -6 -3 -8 -14
-6 -25 2 -11 -1 -22 -6 -25 -5 -4 -7 -11 -3 -16 3 -5 0 -8 -7 -7 -7 2 -13 -2
-14 -9 0 -19 -12 -25 -12 -6 0 34 -3 44 -12 39 -5 -3 -7 -19 -6 -36 1 -17 -1
-33 -6 -35 -4 -3 -6 3 -4 14 2 11 -3 25 -11 32 -13 10 -14 8 -10 -14 2 -15 2
-26 -2 -24 -4 1 -7 -2 -7 -8 0 -5 4 -9 8 -7 5 1 5 -2 2 -8 -5 -8 -14 -5 -28 7
-18 16 -20 16 -14 1 3 -10 -3 -23 -16 -35 -20 -17 -21 -17 -8 0 8 10 16 30 17
45 3 25 2 26 -11 8 -8 -10 -12 -22 -10 -27 3 -4 0 -11 -6 -15 -7 -4 -9 -3 -5
4 3 6 1 14 -5 18 -9 5 -10 -2 -6 -27 5 -24 4 -30 -3 -19 -5 8 -10 23 -10 32 0
9 -5 18 -11 20 -6 2 -2 14 10 28 21 26 28 21 12 -9 -7 -13 -6 -18 4 -18 17 0
12 64 -6 81 -9 8 -10 8 -5 -2 4 -7 5 -20 2 -29 -6 -14 -8 -14 -25 2 -19 16
-19 16 -17 -2 5 -25 -5 -38 -16 -22 -6 10 -7 6 -2 -11 6 -21 5 -23 -8 -13 -8
7 -18 10 -21 6 -4 -3 -7 0 -7 7 0 7 -3 10 -6 7 -4 -4 -2 -13 5 -20 9 -11 7
-17 -6 -28 -15 -12 -16 -12 -10 3 3 10 2 20 -3 23 -16 10 -18 -10 -4 -35 7
-14 13 -19 14 -12 0 7 4 11 9 8 5 -3 14 1 21 8 6 8 20 13 31 11 13 -3 17 0 13
8 -4 7 -3 8 1 4 15 -13 14 -35 -1 -48 -12 -9 -12 -15 -2 -28 11 -14 11 -14 -3
-4 -9 7 -20 9 -24 5 -5 -4 -5 -2 -2 4 4 7 0 17 -8 24 -13 11 -15 10 -12 -6 1
-11 6 -24 10 -31 4 -6 3 -15 -3 -18 -6 -4 -9 -1 -8 6 2 7 -6 13 -17 13 -14 1
-20 -5 -19 -21 1 -13 -3 -20 -7 -17 -5 3 -7 9 -4 14 3 4 -2 13 -10 20 -13 11
-15 10 -12 -6 1 -11 7 -26 12 -34 6 -11 3 -10 -11 2 -26 23 -51 5 -31 -21 11
-14 10 -14 -5 -2 -10 7 -16 16 -14 20 2 3 -2 21 -9 38 -9 22 -20 31 -34 30
-11 0 -19 -6 -18 -12 1 -5 -8 -9 -20 -9 -23 1 -22 -7 8 -46 9 -13 10 -13 6 2
-3 9 0 24 7 34 11 15 13 12 11 -22 -2 -21 2 -46 8 -54 7 -8 2 -6 -11 4 -23 20
-31 10 -9 -14 10 -12 9 -12 -4 -2 -13 10 -19 9 -28 -1 -6 -8 -7 -18 -3 -22 4
-5 2 -5 -5 -1 -12 6 -9 63 3 75 4 3 4 -7 0 -24 -6 -28 -5 -29 9 -11 12 17 13
22 1 35 -7 9 -19 25 -25 36 -11 19 -12 19 -6 -2 5 -18 2 -21 -14 -18 -11 2
-23 -1 -27 -6 -4 -6 -14 -3 -27 8 -22 18 -22 18 -4 -4 11 -12 14 -24 9 -27 -6
-3 -13 0 -16 6 -2 7 -3 2 -1 -12 2 -14 4 -29 4 -35 1 -5 6 -3 11 5 9 13 10 13
10 0 1 -12 3 -11 11 3 6 10 8 25 5 32 -3 8 -1 17 4 20 10 6 14 -7 11 -35 -2
-13 0 -13 8 -1 5 8 7 21 3 29 -4 10 -1 13 7 8 7 -5 9 -15 6 -25 -12 -29 -13
-46 -1 -61 10 -13 9 -13 -8 0 -18 14 -19 13 -12 -5 6 -16 5 -17 -5 -8 -9 10
-10 15 0 27 7 8 8 17 3 20 -10 6 -27 -22 -23 -37 1 -5 -3 -6 -8 -3 -5 4 -19
-6 -30 -20 -12 -15 -21 -22 -21 -16 0 6 4 13 10 17 5 3 7 12 4 20 -4 8 -10 12
-15 9 -5 -3 -7 -9 -4 -14 3 -5 1 -11 -5 -15 -6 -4 -7 -12 -4 -18 4 -7 3 -8 -2
-4 -5 5 -9 23 -9 40 0 25 -4 32 -20 32 -11 1 -19 6 -18 11 1 6 -4 11 -12 11
-13 0 -13 -53 1 -66 4 -3 4 7 0 22 -4 19 -3 26 4 22 13 -8 13 -27 -2 -62 -6
-15 -12 -31 -12 -35 -1 -3 -4 -10 -8 -14 -4 -3 -6 3 -3 14 2 11 -3 26 -11 33
-13 10 -14 8 -10 -13 3 -19 -3 -32 -22 -50 l-27 -23 23 26 c12 14 19 29 15 32
-4 4 -8 16 -10 27 -2 14 2 18 17 15 24 -5 36 11 21 29 -6 7 -9 15 -6 18 3 2
-2 5 -9 5 -8 0 -15 -3 -14 -6 0 -3 0 -13 -1 -21 -1 -13 -2 -13 -11 0 -6 10 -8
-1 -7 -33 2 -40 -2 -52 -23 -70 l-25 -22 21 25 c15 17 20 32 15 45 -4 11 -6
35 -6 52 1 28 -8 38 -11 12 -1 -5 -2 -12 -3 -15 0 -4 -9 0 -18 7 -14 12 -16
12 -8 -1 10 -16 16 -60 9 -60 -2 0 -9 12 -14 26 -8 19 -14 23 -23 16 -6 -5
-20 -8 -29 -7 -10 2 -17 0 -16 -3 4 -15 -14 -52 -23 -46 -5 3 -6 11 -2 17 10
16 13 41 5 32 -4 -4 -8 -11 -8 -16 -3 -22 -5 -23 -14 -9 -6 9 -10 10 -10 3 0
-6 4 -14 10 -18 5 -3 7 -13 4 -23 -5 -14 -4 -15 5 -2 9 13 11 13 11 0 0 -13 2
-13 10 0 6 10 8 5 6 -18 -1 -17 -6 -35 -11 -39 -4 -4 -5 -3 -2 3 4 6 -2 19
-13 29 -18 16 -30 8 -13 -9 13 -13 11 -34 -4 -32 -17 3 -33 25 -32 46 0 8 5 3
11 -13 5 -15 14 -25 19 -21 5 3 6 11 2 17 -5 7 -8 23 -8 36 0 20 -6 25 -25 26
-26 2 -28 -2 -31 -67 0 -10 -5 -20 -10 -23 -5 -4 -6 -12 -2 -18 5 -8 2 -8 -9
0 -8 7 -18 9 -23 5 -4 -4 -3 3 4 15 7 14 7 23 1 25 -7 2 -5 11 4 23 14 19 15
17 10 -19 -2 -22 -1 -36 3 -32 5 4 8 25 9 47 0 34 -1 37 -15 25 -9 -7 -23 -12
-32 -11 -9 2 -16 -2 -16 -9 0 -6 -4 -20 -8 -31 -5 -16 -5 -17 4 -5 9 13 11 13
11 0 0 -13 1 -13 10 0 6 9 10 10 10 3 0 -6 -5 -15 -10 -18 -8 -5 -8 -11 0 -20
8 -10 8 -15 -1 -21 -7 -4 -9 -3 -6 3 4 6 -2 18 -13 28 -11 10 -20 13 -20 7 0
-6 5 -14 10 -17 6 -3 10 -12 9 -18 0 -9 -2 -8 -6 1 -2 6 -10 9 -15 6 -6 -4 -8
-3 -5 2 3 6 2 16 -4 24 -7 12 -9 11 -10 -5 -1 -11 -1 -23 -1 -27 1 -3 -6 -12
-15 -20 -14 -11 -16 -11 -8 2 9 15 13 28 18 65 2 12 6 26 10 31 3 6 0 11 -8
11 -8 0 -12 -4 -9 -9 5 -7 -9 -12 -28 -9 -3 0 -5 -7 -3 -17 2 -9 4 -21 4 -27
1 -5 6 -3 11 5 6 9 10 10 10 3 0 -6 -5 -15 -10 -18 -6 -4 -7 -12 -4 -18 4 -7
3 -9 -1 -4 -5 4 -20 -3 -33 -15 -14 -13 -21 -16 -16 -8 5 8 8 24 6 35 l-2 20
9 -20 c5 -11 10 -17 12 -12 5 20 5 34 -2 53 -4 13 -3 27 4 35 10 11 9 11 -4 1
-10 -7 -15 -21 -12 -31 2 -9 -2 -23 -11 -30 -8 -7 -13 -18 -10 -25 3 -7 -6
-21 -18 -31 -13 -11 -18 -13 -11 -6 9 10 9 18 0 32 -9 14 -8 21 2 31 11 11 12
9 7 -9 -4 -12 -2 -24 5 -29 8 -5 10 -2 6 8 -3 9 1 24 8 35 9 14 10 24 3 34 -8
11 -9 11 -4 -3 3 -10 1 -20 -4 -23 -6 -4 -10 0 -11 7 0 9 -2 10 -5 1 -3 -7
-12 -9 -20 -6 -7 3 -17 -2 -20 -11 -3 -9 -10 -13 -16 -10 -5 3 -5 11 2 19 8 9
8 15 0 20 -6 4 -9 1 -8 -7 2 -7 -3 -12 -11 -10 -12 3 -12 0 -2 -12 10 -12 9
-17 -8 -26 -12 -6 -21 -7 -21 -1 0 5 6 12 13 14 6 3 -3 4 -21 3 -18 -2 -35 1
-38 6 -3 5 -11 5 -18 -1 -7 -6 -15 -8 -18 -5 -3 3 -9 0 -14 -7 -4 -8 -3 -10 4
-5 7 4 12 2 12 -3 0 -11 -11 -14 -27 -8 -5 1 -7 5 -6 8 1 3 -4 6 -11 6 -8 0
-13 -7 -11 -16 1 -9 -2 -22 -8 -29 -7 -9 -6 -16 3 -25 10 -10 12 -8 7 6 -4 11
-3 16 4 12 6 -4 8 -13 5 -20 -2 -7 0 -17 6 -23 6 -6 6 -12 -3 -17 -7 -5 -10
-4 -6 2 4 6 -2 18 -13 28 -20 18 -29 8 -10 -11 7 -7 6 -11 -4 -11 -8 0 -15 3
-14 6 2 20 -3 31 -12 26 -6 -4 -8 -11 -4 -16 3 -5 0 -8 -8 -7 -7 2 -12 -2 -11
-9 1 -6 -5 -17 -15 -25 -15 -11 -15 -11 -6 2 6 8 10 22 8 30 -2 8 -6 26 -9 40
-5 23 -4 23 8 -3 7 -15 16 -25 20 -21 8 9 -23 55 -34 49 -4 -3 -6 -23 -4 -45
2 -22 -1 -42 -6 -46 -5 -3 -8 -1 -7 4 2 6 -1 10 -7 10 -5 0 -9 -5 -7 -11 2 -7
0 -9 -4 -5 -4 4 -14 2 -23 -4 -14 -11 -14 -10 0 7 9 11 14 27 12 35 -3 9 -1
11 4 5 23 -28 44 -7 23 25 -5 9 -5 19 0 25 6 8 5 12 -4 12 -14 0 -14 -26 -1
-47 3 -6 1 -10 -4 -10 -6 0 -11 4 -11 8 0 5 -7 17 -16 28 -15 18 -15 18 -5 -3
17 -34 12 -40 -9 -13 -16 20 -19 21 -13 5 6 -18 5 -19 -11 -6 -9 8 -16 10 -14
5 2 -5 -1 -10 -7 -11 -5 -1 -9 6 -7 15 2 15 1 15 -7 2 -6 -8 -16 -15 -23 -15
-15 0 -18 -53 -5 -72 4 -6 3 -14 -3 -18 -6 -4 -9 -3 -8 2 2 4 -1 8 -7 8 -5 0
-9 -4 -7 -10 2 -5 1 -8 -1 -5 -3 3 -5 7 -5 10 -1 3 -5 17 -11 32 -6 17 -7 29
-1 33 6 4 10 -6 10 -20 0 -14 4 -24 10 -20 6 3 6 15 0 29 -6 16 -5 28 3 37 7
8 4 7 -8 -2 -22 -17 -71 -19 -95 -4 -13 7 -13 6 -2 -7 9 -11 10 -18 2 -23 -5
-3 -10 0 -10 7 0 9 -3 9 -10 -2 -8 -13 -14 -8 -12 11 1 3 -6 6 -14 6 -7 0 -12
-2 -9 -5 2 -2 -2 -19 -9 -37 -9 -20 -10 -38 -5 -46 9 -15 12 -7 10 26 l-1 20
9 -20 c9 -19 12 -18 15 4 2 17 16 25 16 9 0 -8 -9 -23 -20 -33 -11 -10 -17
-23 -14 -29 3 -6 -7 3 -21 19 -16 17 -25 23 -21 13 9 -28 0 -21 -24 18 -12 19
-25 33 -28 30 -3 -3 -12 0 -20 7 -13 10 -14 9 -7 -2 9 -15 15 -84 6 -76 -2 3
-14 -3 -25 -12 -21 -18 -21 -18 -3 3 24 29 10 38 -17 10 -11 -12 -15 -15 -8
-6 21 28 13 35 -13 10 -13 -12 -22 -27 -18 -33 3 -6 1 -7 -6 -3 -9 6 -9 11 -1
21 7 8 7 16 2 19 -10 6 -27 -22 -23 -37 1 -5 -4 -5 -10 -2 -8 5 -8 10 0 18 6
6 11 16 11 21 -1 6 -12 -2 -26 -19 -16 -19 -22 -22 -15 -9 10 21 6 34 -10 34
-5 0 -7 -6 -5 -12 1 -7 1 -10 -1 -5 -3 4 -9 4 -14 1 -6 -4 -6 -11 1 -19 8 -10
8 -15 -1 -21 -7 -4 -9 -3 -6 3 4 6 -2 18 -13 28 -22 20 -28 7 -7 -14 9 -11 9
-12 0 -7 -7 4 -17 15 -22 25 -9 15 -5 17 22 17 20 -1 31 4 29 12 -2 13 10 16
22 5 3 -4 13 -8 21 -9 11 -2 12 2 5 16 -5 9 -7 19 -5 22 3 3 -2 5 -10 5 -11 0
-12 -4 -5 -11 15 -15 12 -30 -4 -17 -8 6 -20 10 -27 9 -8 -2 -13 2 -12 8 1 6
-4 11 -12 11 -8 0 -14 -3 -13 -6 2 -23 -4 -41 -11 -36 -6 3 -8 14 -6 25 2 11
0 22 -5 25 -4 3 -7 -3 -6 -12 4 -25 -16 -35 -35 -17 -14 13 -16 11 -14 -25 1
-24 -2 -39 -9 -38 -6 1 -10 -3 -9 -9 1 -6 -5 -11 -13 -11 -9 0 -11 4 -5 10 11
11 3 39 -10 31 -5 -3 -6 -10 -3 -16 4 -6 2 -8 -4 -4 -6 3 -16 -2 -22 -11 -9
-16 -10 -16 -8 -1 2 9 -1 17 -7 17 -5 1 -10 -3 -10 -9 0 -5 -4 -10 -10 -10 -5
0 -11 5 -11 10 -3 20 -4 21 -14 15 -7 -4 -7 -12 0 -25 7 -13 7 -21 0 -25 -6
-4 -10 -3 -9 2 3 19 -2 34 -10 29 -5 -4 -8 2 -6 11 2 10 4 23 4 28 1 6 6 3 11
-5 5 -8 10 -10 11 -5 0 6 2 17 4 26 1 9 -3 16 -11 16 -7 0 -12 -3 -11 -6 1 -3
-2 -6 -8 -6 -5 0 -9 5 -7 10 1 6 -7 -1 -18 -14 -11 -12 -18 -27 -15 -31 3 -4
-2 -13 -10 -20 -8 -7 -13 -16 -10 -20 3 -5 2 -11 -2 -13 -5 -3 -9 8 -10 25 0
18 2 25 7 18 5 -9 9 -9 14 -1 4 6 2 11 -4 11 -6 0 -8 5 -3 13 13 20 12 34 -3
34 -10 0 -11 -4 -4 -12 7 -9 5 -16 -6 -26 -14 -11 -15 -10 -12 6 2 16 -4 19
-34 20 -20 1 -35 -2 -32 -6 2 -4 0 -10 -6 -14 -5 -3 -10 -14 -9 -23 0 -12 3
-9 10 7 5 13 12 21 15 18 3 -3 1 -14 -4 -24 -5 -10 -7 -25 -5 -33 3 -8 -3 -5
-12 8 -11 15 -15 32 -11 50 5 20 4 23 -4 12 -13 -19 -13 -53 0 -68 7 -9 7 -9
-2 -2 -8 7 -18 4 -32 -8 -21 -17 -21 -17 -3 5 10 12 17 30 16 40 -2 10 -1 23
3 28 4 6 -3 11 -15 12 -12 0 -16 -1 -8 -4 11 -5 11 -7 0 -14 -10 -6 -11 -9 -1
-9 18 0 14 -25 -8 -45 -11 -10 -17 -22 -13 -28 3 -6 1 -7 -6 -3 -9 6 -9 11 -1
21 7 9 6 16 -7 26 -15 12 -16 12 -10 -3 3 -10 2 -20 -4 -23 -5 -4 -6 -11 -3
-17 4 -7 2 -8 -5 -4 -8 5 -9 12 -2 20 7 9 6 19 -4 34 -9 12 -11 23 -6 26 5 4
12 -2 14 -11 4 -15 5 -15 6 -2 0 9 -7 23 -16 30 -9 8 -14 9 -10 3 4 -7 -1 -18
-10 -25 -15 -12 -16 -12 -10 3 3 10 2 20 -4 23 -5 4 -9 3 -8 -2 3 -20 -2 -34
-11 -28 -6 4 -7 11 -4 17 4 7 2 8 -4 4 -7 -4 -12 -1 -12 6 0 10 -2 10 -9 -1
-5 -8 -6 -21 -3 -30 4 -10 7 -11 10 -3 2 7 9 9 15 5 7 -4 21 -8 31 -8 11 0 20
-8 22 -18 1 -9 -2 -15 -6 -12 -5 3 -14 -3 -20 -12 -9 -16 -10 -16 -8 -1 2 9
-1 17 -7 17 -5 0 -9 -8 -9 -19 1 -11 -2 -17 -6 -15 -9 6 -8 25 3 43 5 6 4 12
-2 12 -14 0 -32 -35 -23 -45 4 -5 2 -5 -5 -1 -7 4 -9 14 -6 24 6 15 5 15 -10
3 -14 -11 -15 -17 -5 -30 10 -13 10 -14 -2 -4 -20 18 -21 40 -2 55 13 11 14
11 7 -1 -5 -10 -4 -12 3 -7 9 5 9 13 2 27 -13 23 -22 25 -13 2 4 -11 3 -14 -5
-9 -7 4 -12 15 -13 24 0 15 -1 15 -8 -1 -8 -22 -21 -24 -32 -5 -7 10 -9 10 -9
0 0 -7 -5 -10 -10 -7 -6 4 -7 12 -3 18 4 7 0 6 -10 -2 -9 -7 -16 -21 -16 -30
1 -13 2 -13 6 2 2 9 9 15 14 11 5 -3 7 -9 4 -14 -6 -10 15 -8 33 3 7 5 12 3
12 -5 0 -10 2 -10 9 1 6 9 11 10 15 2 4 -6 3 -11 -2 -11 -15 0 -21 -37 -8 -51
9 -11 8 -11 -5 -1 -10 8 -15 21 -12 32 3 12 0 20 -6 20 -7 0 -10 -4 -6 -9 3
-5 1 -13 -5 -16 -8 -5 -7 -12 2 -23 12 -15 11 -16 -4 -3 -10 7 -16 17 -13 21
3 4 -3 14 -12 21 -15 12 -16 12 -10 -3 4 -11 2 -17 -6 -15 -7 1 -11 -3 -10
-10 4 -18 -26 -9 -41 13 -8 10 -14 22 -15 26 -1 4 -6 18 -11 30 -7 19 -9 19
-9 5 -1 -10 -6 -15 -11 -12 -6 4 -8 10 -5 15 3 5 1 11 -4 14 -7 5 -8 -22 -1
-31 2 -2 3 -12 4 -22 0 -10 10 -29 21 -42 11 -13 3 -8 -18 10 -41 38 -50 32
-14 -8 19 -22 19 -23 1 -9 -16 14 -23 15 -34 5 -12 -10 -12 -9 -3 3 8 10 9 21
3 30 -9 14 -11 13 -14 -9 0 -5 -5 -13 -10 -18 -5 -4 -6 -3 -3 3 4 7 -1 18 -10
25 -15 12 -16 12 -9 -6 4 -11 4 -16 0 -12 -4 4 -17 -1 -28 -10 -21 -18 -21
-18 -3 3 24 28 22 41 -3 19 -24 -22 -50 -28 -47 -12 1 7 -3 11 -10 10 -6 -1
-10 5 -8 15 2 9 4 22 4 27 1 6 6 3 11 -5 9 -13 10 -13 10 0 0 13 1 13 10 0 8
-12 9 -10 7 7 -2 12 -7 26 -11 30 -4 5 -6 3 -4 -2 1 -6 -1 -10 -7 -10 -5 0 -9
3 -8 6 1 3 -5 6 -13 6 -10 0 -11 -4 -5 -10 7 -7 5 -19 -4 -37 -8 -15 -11 -31
-7 -35 4 -5 2 -5 -5 -2 -6 4 -14 1 -16 -5 -4 -9 -6 -10 -6 -1 -1 6 4 15 9 18
6 3 10 11 10 17 0 6 -12 1 -26 -13 -14 -13 -24 -19 -22 -14 2 6 -1 10 -7 10
-5 0 -9 -3 -8 -7 3 -8 -24 -4 -33 5 -4 4 -13 2 -20 -4 -8 -7 -14 -7 -19 1 -3
6 -12 7 -18 4 -9 -5 -9 -4 0 6 6 7 9 20 6 29 -4 14 -3 14 7 1 10 -13 11 -13 6
2 -3 10 -1 20 4 23 5 3 11 -5 13 -17 3 -16 4 -13 4 8 -1 17 -6 31 -13 31 -7 0
-12 -5 -11 -10 1 -5 -13 -11 -31 -12 -21 -1 -31 3 -28 10 2 6 -2 12 -8 12 -10
0 -11 -7 -2 -29 9 -24 12 -26 18 -11 5 15 7 15 7 2 1 -8 -11 -26 -26 -40 -14
-13 -23 -19 -20 -13 4 7 0 17 -8 24 -18 15 -19 36 -4 46 8 4 9 -1 4 -17 -5
-20 -4 -21 5 -9 10 13 11 13 7 -2 -6 -18 1 -30 14 -22 5 3 0 23 -11 45 -21 40
-35 53 -23 22 6 -16 5 -16 -10 -4 -9 7 -17 10 -17 6 0 -4 -8 -1 -17 6 -16 12
-17 12 -5 -2 15 -20 12 -66 -5 -66 -6 0 -10 4 -8 7 3 4 -5 21 -17 36 -31 42
-42 52 -29 27 7 -13 7 -24 2 -28 -5 -3 -11 3 -13 12 -3 15 -5 15 -10 -3 -5
-18 -2 -21 22 -19 22 2 27 -2 26 -21 -1 -13 -5 -27 -10 -31 -4 -4 -7 -3 -6 2
5 21 -1 27 -14 16 -10 -8 -16 -9 -21 -1 -3 6 -10 8 -15 5 -5 -3 -7 4 -5 15 3
14 0 20 -8 17 -7 -3 -11 -10 -9 -16 1 -7 -2 -10 -7 -7 -5 4 -12 0 -15 -6 -2
-7 -3 -2 -2 12 2 14 7 24 12 23 5 -1 14 3 21 8 6 6 13 6 15 2 3 -4 4 -3 2 3
-1 6 2 16 8 22 6 6 6 12 -3 17 -7 5 -10 4 -6 -2 4 -6 -1 -17 -10 -24 -15 -12
-16 -12 -10 6 6 17 4 16 -11 -4 -13 -16 -22 -20 -26 -12 -4 6 -1 11 6 12 10 0
10 2 0 6 -6 2 -10 8 -8 12 3 4 -1 8 -9 8 -11 0 -12 -4 -4 -13 7 -8 7 -14 -1
-19 -5 -3 -10 -2 -10 2 0 5 -7 18 -15 29 -13 16 -14 16 -9 1 5 -13 2 -16 -12
-11 -16 5 -16 4 -4 -5 11 -8 12 -11 2 -11 -7 0 -10 -4 -7 -10 3 -5 0 -10 -7
-10 -9 0 -9 -3 2 -10 11 -7 11 -10 2 -10 -8 0 -10 -5 -6 -12 4 -8 3 -10 -2 -5
-5 5 -9 12 -9 15 -1 4 -6 17 -13 29 -7 13 -8 24 -3 28 5 3 12 -5 14 -17 3 -15
4 -11 4 9 -1 18 -3 30 -6 28 -2 -3 -11 1 -20 8 -14 10 -14 10 -3 -5 8 -10 9
-19 3 -22 -5 -3 -11 0 -13 6 -3 8 -25 14 -59 14 -30 1 -55 3 -56 4 -2 1 -9 3
-15 4 -7 1 -12 8 -10 16 3 12 1 12 -9 3 -6 -6 -17 -10 -23 -9 -6 2 -8 1 -3 -1
4 -3 7 -10 7 -16 0 -5 -3 -7 -7 -4 -10 11 -34 -14 -26 -27 10 -15 13 -40 5
-31 -4 4 -7 11 -7 16 0 5 -4 8 -10 7 -5 -2 -9 -7 -7 -11 1 -5 -2 -6 -8 -2 -6
3 -8 10 -5 15 3 5 1 11 -5 15 -5 3 -10 12 -10 18 0 7 4 6 10 -3 9 -13 10 -13
10 0 0 12 2 12 9 2 6 -11 10 -10 15 4 3 9 4 19 1 22 -3 3 -5 -1 -6 -9 0 -8 -4
-6 -9 6 -6 15 -9 16 -9 4 -1 -9 -8 -16 -16 -16 -18 0 -20 13 -2 21 6 3 3 4 -8
3 -11 -1 -20 3 -20 10 0 6 -4 15 -8 20 -5 4 -7 4 -5 -2 1 -5 -1 -10 -7 -10 -5
0 -9 3 -8 6 1 3 -4 6 -11 6 -7 0 -12 -12 -12 -27 0 -20 5 -26 22 -26 15 0 20
5 16 15 -4 9 -1 12 7 7 7 -5 9 -15 6 -25 -12 -29 -13 -46 -1 -61 9 -13 9 -13
-6 -2 -11 9 -15 22 -12 39 4 23 3 25 -10 13 -9 -7 -14 -16 -11 -20 6 -10 -21
-7 -32 3 -4 4 -8 18 -10 30 -2 16 -1 18 6 8 6 -9 8 -4 8 17 -1 17 -4 29 -6 26
-2 -2 -11 2 -19 9 -13 10 -14 9 -7 -3 12 -19 13 -31 4 -51 -5 -10 -2 -25 8
-40 14 -22 14 -23 0 -9 -24 22 -47 72 -39 84 4 6 10 -2 14 -19 6 -30 7 -30 5
-2 -1 15 -6 27 -11 26 -5 0 -13 5 -17 13 -7 10 -9 10 -9 -2 0 -13 -1 -13 -10
0 -7 11 -9 8 -7 -13 1 -15 9 -32 17 -38 12 -8 11 -9 -5 -7 -15 2 -19 -2 -17
-17 2 -11 1 -17 -3 -13 -3 3 -8 12 -9 20 -1 7 -7 23 -14 35 -7 13 -8 24 -3 28
5 3 12 -5 14 -17 5 -21 5 -21 4 2 -1 14 2 30 5 36 4 6 1 11 -7 11 -8 0 -13 -3
-12 -6 1 -3 -2 -7 -8 -8 -5 -2 -10 1 -10 6 0 5 -4 13 -8 18 -5 4 -8 4 -7 -2 5
-22 -1 -29 -11 -15 -8 11 -9 9 -3 -10 11 -39 13 -71 4 -65 -5 3 -11 -1 -13 -7
-4 -9 -6 -10 -6 -1 -1 6 4 15 9 18 6 3 10 11 10 17 0 6 -12 1 -27 -13 -15 -13
-22 -17 -15 -7 9 11 10 18 2 23 -5 3 -10 12 -10 18 0 7 4 6 10 -3 9 -13 10
-13 10 0 0 13 1 13 10 0 12 -18 12 -2 0 25 -8 18 -9 18 -9 2 -1 -10 -6 -15
-11 -12 -7 4 -6 14 1 28 9 20 9 20 -4 5 -17 -22 -31 -11 -15 11 10 13 10 14
-2 4 -14 -13 -21 -32 -23 -70 0 -12 -3 -20 -6 -18 -2 3 -11 -1 -20 -7 -15 -12
-15 -11 0 7 17 22 20 80 4 80 -19 0 -35 16 -29 27 4 7 2 8 -5 4 -9 -6 -9 -11
0 -22 6 -8 8 -14 5 -14 -4 0 -2 -9 4 -20 6 -11 16 -18 21 -14 7 4 7 -1 0 -14
-6 -12 -17 -24 -24 -28 -9 -5 -9 -4 1 7 18 20 15 33 -5 18 -16 -12 -17 -12 -6
2 7 9 10 19 6 23 -4 4 -12 -3 -19 -15 -15 -28 -42 -33 -40 -8 1 10 -3 19 -9
19 -5 0 -10 -4 -10 -9 0 -5 -3 -12 -7 -15 -5 -3 -6 -3 -3 1 3 3 0 12 -7 20 -6
8 -7 13 -2 12 19 -3 29 2 17 9 -10 6 -9 14 2 35 8 15 10 25 4 22 -27 -18 -172
-355 -237 -555 -70 -216 -123 -466 -140 -664 l-7 -89 -38 -1 c-35 -1 -37 1
-37 31 0 48 28 254 50 372 191 997 811 1862 1703 2375 99 57 310 158 429 205
355 141 677 213 1103 245 101 8 464 -4 595 -19z m-3656 -547 c-5 -7 -3 -8 7
-2 21 12 59 13 60 0 0 -6 3 -20 5 -31 12 -50 11 -75 -4 -87 -13 -11 -14 -11
-7 1 6 11 5 12 -6 5 -8 -4 -18 -9 -24 -11 -5 -1 -20 -4 -32 -7 -13 -3 -23 0
-23 5 0 6 -4 8 -8 5 -5 -3 -13 18 -19 45 -8 41 -7 53 4 65 8 8 18 12 23 9 5
-3 11 -1 15 5 3 5 8 10 11 10 3 0 2 -5 -2 -12z m7123 -36 c11 -6 24 -8 28 -4
5 4 5 1 1 -5 -4 -7 -3 -13 3 -13 17 0 33 -40 36 -87 2 -37 0 -41 -13 -30 -13
10 -14 9 -4 -9 9 -16 8 -21 -3 -21 -8 0 -11 5 -8 11 4 6 -1 5 -10 -3 -9 -7
-15 -17 -12 -21 3 -5 0 -12 -6 -16 -7 -4 -9 -3 -5 4 3 6 2 13 -4 17 -5 3 -10
-2 -11 -12 0 -11 -3 -13 -6 -5 -2 6 -10 9 -16 5 -19 -12 -36 -12 -44 -1 -4 7
-1 8 7 3 8 -5 11 -4 6 3 -4 6 -13 9 -20 6 -9 -3 -17 3 -21 15 -3 12 -11 21
-16 21 -6 0 -7 5 -4 10 3 6 2 10 -2 10 -5 0 -9 11 -9 25 0 14 5 25 11 25 5 0
3 5 -5 10 -12 8 -12 10 -1 10 8 0 11 7 8 20 -3 11 0 18 7 17 6 -1 10 4 8 11
-1 8 2 11 8 7 8 -5 7 -12 -2 -23 -9 -12 -7 -12 9 2 13 10 20 22 18 26 -7 11
48 5 72 -8z m-1827 -179 c17 -19 30 -31 30 -27 0 4 9 -1 20 -11 18 -16 19 -20
5 -35 -8 -9 -12 -20 -8 -25 5 -4 3 -5 -4 -1 -12 7 -13 -30 0 -51 4 -6 1 -16
-7 -22 -15 -12 -16 -28 -3 -48 4 -6 2 -15 -5 -19 -7 -4 -10 -4 -6 1 4 4 3 14
-3 22 -6 7 -8 13 -4 13 4 0 2 6 -4 14 -6 8 -11 18 -10 22 3 21 -2 28 -10 15
-6 -9 -6 -22 0 -34 7 -12 7 -23 -1 -32 -7 -8 -7 -15 -1 -19 5 -3 12 0 15 6 3
7 4 4 3 -7 -1 -12 3 -19 11 -17 17 3 15 -2 -10 -24 -14 -11 -18 -13 -11 -3 11
13 7 21 -17 44 -17 16 -30 24 -30 18 0 -5 9 -18 20 -28 11 -10 16 -23 13 -29
-8 -13 -13 -31 -16 -63 -2 -12 -5 -25 -9 -28 -3 -3 -4 8 -2 25 2 16 6 44 8 60
2 17 0 33 -5 36 -5 3 -10 -1 -10 -8 -4 -34 -6 -54 -9 -63 -1 -5 -2 -14 -1 -18
1 -5 -3 -6 -9 -2 -5 3 -10 -1 -10 -10 0 -9 4 -14 9 -10 14 8 4 -36 -10 -49 -8
-8 -8 -5 0 12 11 21 8 26 -12 23 -5 -1 -6 3 -2 9 11 17 -5 50 -21 43 -12 -5
-12 -7 2 -18 12 -8 13 -14 6 -19 -6 -4 -9 -13 -6 -21 4 -8 11 -12 17 -8 6 4 7
1 1 -8 -12 -19 -12 -31 -2 -46 6 -7 4 -14 -3 -19 -7 -4 -9 -3 -5 4 3 6 2 13
-3 17 -5 3 -8 14 -6 24 2 11 -2 27 -10 37 -11 16 -12 13 -10 -22 2 -21 4 -39
5 -39 6 0 7 -36 0 -40 -4 -2 -7 3 -6 13 0 9 -3 18 -9 19 -5 0 -9 -3 -7 -9 1
-5 -2 -7 -8 -3 -10 6 -13 -3 -13 -37 0 -10 -3 -15 -8 -13 -4 3 -6 18 -3 33 4
25 3 26 -11 8 -8 -10 -12 -23 -9 -27 11 -18 12 -49 3 -54 -5 -4 -6 -11 -3 -17
4 -7 2 -8 -5 -4 -8 5 -9 12 -3 19 5 7 7 21 5 32 -2 11 -4 28 -4 38 0 9 -4 15
-10 12 -5 -4 -7 -22 -5 -41 3 -20 1 -32 -5 -28 -6 3 -8 -5 -5 -19 3 -19 -4
-32 -27 -53 l-32 -29 26 30 c16 18 25 39 23 52 -2 12 1 25 6 28 6 3 10 12 10
18 -1 7 -9 1 -20 -12 -11 -12 -17 -27 -14 -32 3 -5 1 -8 -4 -7 -6 2 -10 -1
-10 -7 0 -5 5 -9 12 -7 6 2 -1 -9 -17 -25 -15 -16 -25 -32 -21 -35 3 -3 1 -9
-4 -12 -12 -7 -10 13 3 34 15 23 14 38 -1 51 -13 10 -14 8 -10 -14 2 -15 -1
-31 -9 -37 -8 -6 -12 -20 -10 -30 2 -10 -4 -25 -13 -32 -13 -11 -14 -11 -7 2
12 19 14 79 3 86 -4 3 -9 -4 -9 -15 -2 -28 -6 -59 -9 -68 -1 -5 -1 -12 0 -18
1 -5 -10 1 -24 14 -30 28 -33 22 -10 -17 11 -18 12 -22 2 -10 -18 22 -33 11
-15 -11 11 -14 10 -14 -6 -2 -12 9 -14 17 -7 26 7 8 2 22 -15 45 -13 18 -22
37 -19 42 9 14 34 -12 35 -36 1 -16 3 -14 10 8 5 20 4 35 -4 45 -6 9 -7 13 -2
8 4 -4 17 1 28 10 11 10 18 13 14 7 -3 -6 -2 -24 3 -40 4 -16 9 -21 9 -12 2
28 81 158 81 132 0 -4 5 -3 11 3 8 8 8 17 0 31 -14 26 -1 37 15 14 7 -11 11
-33 9 -51 -3 -20 0 -29 6 -25 6 3 9 15 6 25 -3 11 -1 16 5 13 6 -4 6 2 -1 14
-7 14 -8 23 -1 27 5 3 11 -4 11 -17 1 -18 2 -19 6 -5 3 10 0 24 -6 30 -7 9 -3
25 15 56 27 45 37 50 27 13 -3 -12 -10 -19 -16 -15 -5 3 -7 1 -3 -5 3 -6 2
-13 -4 -17 -6 -4 -7 -12 -1 -22 4 -9 6 -25 3 -36 -3 -13 -1 -18 6 -13 6 3 9
19 6 34 -4 22 -2 24 7 12 9 -13 10 -13 5 2 -3 10 -1 20 3 23 5 3 7 15 4 28 -4
21 -3 21 11 -3 17 -28 22 -19 6 11 -8 14 -7 25 4 41 14 20 14 24 1 45 -9 13
-13 23 -10 23 13 0 20 -6 17 -15 -1 -5 7 1 18 13 16 19 18 28 9 44 -7 14 -8
18 0 14 11 -7 34 28 24 37 -3 4 -1 13 6 21 6 8 14 23 16 35 3 12 8 31 11 44 4
12 7 36 8 53 1 40 19 39 56 -3z m2044 -372 c9 -7 13 -17 10 -22 -3 -5 0 -9 7
-9 7 0 9 -3 6 -7 -4 -3 2 -13 13 -20 11 -8 18 -19 15 -24 -4 -5 -2 -9 3 -9 20
0 6 -55 -17 -67 -32 -16 -48 -7 -71 38 -11 21 -24 40 -30 44 -16 10 -12 67 7
80 20 15 35 14 57 -4z m-3886 -1552 c299 -76 526 -317 588 -622 22 -109 15
-284 -16 -382 -83 -264 -281 -462 -545 -545 -88 -28 -272 -38 -370 -21 -208
36 -410 170 -529 350 -290 435 -87 1032 407 1202 151 52 309 58 465 18z m3951
-1063 c9 -6 12 -5 8 2 -5 6 0 8 12 5 26 -7 63 -93 40 -93 -5 0 -8 -3 -8 -7 3
-18 -1 -36 -7 -30 -4 3 -19 0 -35 -9 -16 -8 -29 -10 -29 -5 0 5 -9 8 -19 6
-20 -4 -37 25 -44 75 -4 24 25 65 37 53 3 -4 6 -1 6 4 0 13 18 12 39 -1z
m-371 -726 c12 -13 13 -13 6 0 -5 11 -4 12 4 5 6 -6 13 -22 16 -35 2 -14 6
-27 7 -30 7 -16 2 -37 -11 -50 -9 -8 -11 -12 -6 -7 6 4 14 7 20 7 5 0 1 -6 -9
-14 -11 -8 -27 -12 -37 -11 -10 2 -20 0 -23 -6 -4 -5 -14 -5 -26 1 -14 8 -19
7 -19 -1 0 -7 -9 -2 -20 11 -11 12 -17 27 -14 31 3 5 1 9 -3 9 -5 0 -9 18 -8
41 0 32 5 43 23 53 31 17 84 15 100 -4z m-8049 -145 c1 11 5 16 9 10 4 -5 14
-16 23 -22 13 -10 16 -10 16 2 0 8 -4 12 -8 9 -4 -2 -10 -1 -13 4 -2 4 4 9 15
9 12 1 19 -5 19 -15 0 -15 2 -15 10 -2 8 13 10 12 10 -3 0 -10 4 -16 9 -13 5
3 12 -6 15 -19 4 -14 11 -23 16 -20 6 4 7 -1 3 -11 -4 -11 -2 -15 4 -11 15 10
24 -18 10 -32 -8 -8 -6 -11 9 -12 18 0 18 -1 -1 -9 -18 -8 -18 -9 -2 -9 10 -1
16 -5 12 -10 -3 -5 -1 -12 4 -15 14 -9 7 -39 -10 -44 -11 -3 -11 -1 1 7 13 10
13 11 0 11 -13 0 -13 1 0 11 13 9 13 10 0 6 -9 -2 -14 -14 -13 -31 1 -15 -2
-24 -7 -21 -10 6 -8 -15 5 -35 7 -12 6 -13 -6 -4 -22 17 -65 11 -93 -13 -26
-23 -36 -18 -13 6 10 11 8 11 -12 1 -16 -8 -26 -9 -34 -1 -7 7 -14 7 -23 0 -8
-7 -14 -7 -19 1 -5 8 -11 7 -23 -2 -13 -11 -15 -11 -10 3 5 12 1 15 -20 12
-26 -3 -26 -3 -4 6 27 13 29 21 2 14 -22 -6 -29 22 -7 30 8 4 7 6 -4 6 -12 1
-16 17 -18 86 -2 73 0 85 14 85 9 0 13 5 10 10 -3 6 -1 10 4 10 17 0 13 -18
-6 -29 -16 -9 -14 -11 15 -11 4 0 7 6 7 13 0 6 6 13 13 13 6 1 15 3 20 4 4 1
11 2 16 1 5 -1 6 4 3 12 -3 8 1 14 9 14 9 0 13 -6 10 -14 -3 -8 -1 -11 4 -8 6
3 10 14 11 23 0 14 2 13 9 -3 l9 -20 0 20z m7721 -489 c-6 -6 -5 -16 1 -28 5
-10 7 -18 4 -18 -4 0 -3 -6 2 -12 15 -24 10 -79 -7 -88 -10 -5 -21 -6 -25 -2
-3 4 -5 3 -3 -3 2 -5 -1 -10 -7 -10 -5 0 -9 3 -8 6 1 3 -4 6 -12 6 -8 0 -13
-5 -12 -10 1 -5 -7 -11 -17 -13 -10 -1 -23 -9 -27 -16 -8 -12 -13 -4 -10 16 1
5 -4 4 -13 -3 -9 -7 -16 -8 -20 -2 -4 5 -17 8 -30 5 -22 -4 -23 -1 -22 46 0
28 -3 50 -7 50 -5 0 -5 5 -2 10 3 6 0 10 -7 10 -8 0 -9 3 -3 8 6 4 11 18 13
30 3 28 42 82 43 61 0 -11 2 -11 6 -1 4 10 8 10 19 1 11 -9 15 -8 20 6 5 13 9
14 15 3 7 -10 9 -10 9 2 0 13 1 13 10 0 6 -10 10 -11 10 -2 0 6 5 12 11 12 5
0 7 -4 4 -10 -3 -6 1 -7 9 -4 9 3 13 11 10 18 -3 6 8 -5 25 -24 20 -21 27 -38
21 -44z"/>
<path d="M6475 7193 c2 -13 0 -25 -5 -28 -5 -3 -7 -12 -3 -21 3 -8 -3 -24 -13
-36 -11 -12 -14 -18 -7 -15 6 4 14 3 17 -2 3 -5 -1 -11 -8 -14 -8 -3 -20 -16
-26 -28 -8 -15 -9 -19 -1 -15 6 4 11 0 11 -9 0 -9 -5 -13 -10 -10 -6 4 -10 3
-9 -2 4 -22 -2 -34 -13 -27 -10 6 -10 4 0 -7 15 -16 16 -33 1 -23 -8 4 -8 0 0
-15 7 -12 8 -21 2 -21 -5 0 -11 5 -13 10 -2 6 -9 1 -16 -11 -8 -12 -9 -18 -4
-15 6 3 13 -1 16 -10 5 -12 2 -15 -9 -10 -10 3 -13 2 -10 -5 4 -6 13 -8 21 -5
7 3 17 -2 22 -11 8 -13 11 -13 18 -2 5 8 10 25 11 39 3 48 10 76 22 96 11 18
12 18 6 -3 -3 -12 -1 -24 4 -27 15 -10 23 11 12 32 -6 11 -6 24 1 36 8 15 7
22 -6 32 -11 8 -13 14 -7 19 6 3 11 1 11 -5 0 -6 5 -8 10 -5 6 3 10 11 10 16
0 6 -4 8 -9 4 -5 -3 -13 0 -17 6 -4 8 -3 9 5 5 6 -4 11 -4 10 1 -1 4 0 22 1
38 l2 30 7 -30 c5 -24 8 -27 14 -12 4 12 -3 27 -23 50 -26 28 -29 29 -25 10z"/>
<path d="M206 2658 c-11 -16 -26 -25 -42 -25 -17 0 -22 2 -13 7 6 5 18 6 26 3
7 -3 13 1 13 8 0 7 -3 9 -7 6 -3 -4 -12 -2 -19 4 -9 8 -16 5 -24 -11 -6 -12
-14 -19 -17 -16 -4 3 -12 1 -20 -5 -7 -6 -13 -7 -13 -2 0 5 -6 17 -13 28 -12
16 -14 10 -13 -48 1 -36 3 -63 6 -60 3 2 5 10 5 16 0 7 7 12 15 13 21 1 51
-26 43 -40 -3 -6 0 -6 7 1 11 10 18 9 34 -5 21 -17 21 -17 4 4 -17 20 -17 21
7 44 14 13 25 19 25 13 0 -6 -7 -16 -15 -23 -8 -7 -12 -17 -9 -22 7 -10 19 -2
19 13 0 5 3 9 8 9 4 0 9 0 12 0 3 0 1 -9 -5 -19 -7 -14 -7 -22 0 -26 6 -4 7
-11 4 -17 -5 -7 -2 -8 5 -3 9 5 10 10 2 18 -6 6 -7 17 -2 26 9 16 11 23 11 39
0 4 4 0 10 -8 5 -9 5 -19 -1 -26 -7 -8 -6 -14 1 -19 6 -4 9 -3 8 2 -2 4 2 9 7
11 6 1 10 -6 10 -15 -1 -10 -7 -17 -14 -15 -7 1 -9 -2 -6 -9 8 -13 30 4 30 24
1 7 6 11 13 10 7 -2 11 0 11 5 -3 19 2 33 10 27 6 -3 8 -15 6 -27 -3 -11 -1
-17 3 -14 4 4 7 13 7 19 1 7 6 11 13 10 7 -2 9 4 5 15 -6 15 -4 15 10 4 9 -8
13 -21 10 -30 -3 -9 -3 -14 1 -10 7 6 14 30 15 57 1 8 4 12 7 9 10 -11 12 -43
3 -54 -5 -7 -3 -11 6 -11 7 0 13 3 12 6 -3 11 30 51 36 44 4 -3 -1 -16 -10
-27 -10 -12 -14 -18 -9 -14 5 4 15 0 23 -10 13 -15 13 -15 4 5 -11 22 2 43 14
23 3 -5 3 -10 -1 -10 -3 0 -2 -6 3 -12 6 -7 9 -21 8 -31 -2 -9 0 -15 5 -12 9
5 8 23 -1 40 -8 16 -5 35 6 33 6 -2 9 -7 7 -12 -1 -4 2 -14 8 -20 5 -7 6 -17
2 -22 -4 -5 2 -1 14 9 11 9 23 14 27 11 3 -4 4 6 1 21 -4 24 -3 26 10 16 15
-13 16 -27 2 -51 -7 -12 -7 -13 5 -2 8 7 15 22 15 32 3 46 4 51 13 46 5 -3 7
-20 5 -38 -3 -22 -1 -28 5 -19 5 8 6 21 3 30 -5 14 -4 14 11 2 12 -9 14 -17 7
-26 -7 -8 -6 -12 4 -12 7 0 13 7 13 16 0 39 4 52 12 47 5 -3 7 -20 5 -38 -3
-27 -2 -30 7 -15 6 9 15 14 21 11 6 -4 8 -3 5 3 -4 6 0 19 8 29 13 18 14 18
11 -6 -3 -35 -15 -52 -29 -43 -9 5 -9 3 0 -8 6 -8 11 -17 10 -21 -1 -3 1 -9 4
-13 4 -3 6 5 5 17 0 13 4 22 11 21 7 -2 10 7 7 24 -4 22 -3 24 9 14 8 -6 13
-25 12 -41 -1 -17 1 -32 5 -35 4 -2 6 14 5 36 -1 21 4 47 11 57 11 15 13 12 9
-23 -3 -26 -2 -35 4 -26 5 8 6 21 3 30 -5 14 -4 14 11 2 12 -9 14 -17 7 -26
-7 -8 -3 -18 13 -34 18 -16 24 -18 24 -7 0 8 -4 13 -8 11 -3 -3 -12 2 -18 9
-8 10 -9 16 -1 21 5 3 10 1 10 -6 0 -7 3 -9 6 -6 4 4 2 13 -4 20 -9 10 -8 18
4 33 15 18 15 18 9 -3 -3 -12 -1 -24 5 -28 6 -3 7 -11 4 -17 -5 -7 -2 -8 5 -3
9 5 10 10 2 18 -16 16 -14 32 2 18 8 -6 17 -8 20 -4 14 13 6 -13 -10 -37 -15
-23 -16 -24 0 -12 9 8 19 22 22 33 4 11 11 17 16 13 6 -3 5 -12 -3 -22 -8 -10
-9 -13 -1 -9 11 7 27 -8 28 -25 0 -3 3 -9 7 -13 10 -11 3 21 -8 36 -6 8 -9 19
-8 24 5 29 17 55 25 55 5 0 5 -10 1 -22 -9 -26 -10 -49 -1 -45 3 1 14 -5 25
-13 15 -12 15 -10 -2 10 -16 18 -19 31 -14 45 6 14 9 16 10 5 2 -8 2 -18 2
-22 -1 -3 5 -12 14 -19 8 -7 14 -8 12 -3 -3 12 22 57 29 51 2 -3 -1 -15 -7
-27 -10 -18 -8 -26 9 -44 12 -12 18 -27 14 -31 -5 -5 0 -3 10 4 19 15 22 22 8
18 -5 -1 -9 3 -9 8 0 6 4 9 8 8 5 -2 7 6 5 16 -2 11 3 27 10 38 13 16 14 14
10 -22 -3 -26 -2 -35 4 -26 5 8 6 21 3 30 -5 14 -4 14 11 2 12 -9 14 -17 7
-26 -7 -8 -5 -12 4 -12 8 0 13 8 11 18 -2 9 3 25 10 36 12 16 13 13 10 -25 -1
-23 1 -45 6 -48 5 -3 7 -10 4 -15 -10 -15 1 -10 15 7 11 12 11 15 0 12 -8 -2
-14 9 -16 30 -2 27 0 31 11 22 8 -6 11 -19 8 -28 -2 -9 5 -2 17 16 13 18 25
31 28 28 2 -3 -2 -16 -11 -29 -13 -20 -13 -24 -1 -24 8 0 12 2 10 4 -2 3 4 23
14 45 17 38 17 43 3 65 l-16 24 -24 -23 -24 -22 -6 22 c-7 27 -23 19 -18 -8 2
-12 0 -18 -5 -15 -6 3 -7 -2 -4 -12 5 -15 4 -16 -5 -3 -9 13 -11 13 -11 0 0
-13 -1 -13 -10 0 -9 13 -10 13 -10 0 0 -13 -1 -13 -10 0 -9 13 -10 13 -11 0 0
-10 -3 -8 -9 5 l-9 20 0 -20 c-1 -17 -3 -17 -11 -5 -9 13 -10 13 -10 0 0 -12
-2 -13 -9 -1 -5 8 -14 10 -22 6 -8 -5 -5 1 6 12 11 11 22 16 23 12 2 -5 8 -9
13 -9 6 0 5 8 -1 20 -11 21 -11 21 -29 -1 l-18 -23 -12 23 c-12 21 -13 21 -25
5 -10 -13 -15 -14 -20 -5 -6 9 -13 8 -27 -5 -19 -17 -20 -17 -26 4 -7 27 -23
19 -18 -8 3 -13 0 -18 -7 -14 -6 4 -8 3 -5 -3 8 -13 -56 -11 -65 2 -5 6 -8 4
-8 -5 0 -13 -1 -13 -10 0 -9 13 -10 13 -10 0 0 -13 -1 -13 -10 0 -9 13 -10 13
-10 0 0 -13 -1 -13 -10 0 -5 8 -10 10 -10 4 0 -6 -7 -11 -15 -11 -8 0 -11 5
-8 10 3 6 2 7 -4 4 -5 -3 -10 1 -10 9 0 10 4 11 11 4 17 -17 27 -11 15 11
l-11 21 -24 -23 -25 -23 -6 22 c-5 22 -6 22 -29 -10 -13 -17 -24 -25 -24 -17
0 11 -2 11 -9 1 -7 -11 -9 -11 -14 1 -3 9 -14 14 -24 12 -10 -1 -23 2 -29 7
-8 5 -14 3 -18 -7 -3 -8 -11 -15 -18 -15 -9 0 -9 3 2 10 12 7 12 12 2 22 -12
12 -13 11 -16 -14 -2 -23 -30 -14 -36 12 -5 22 -7 23 -13 7 -4 -10 -11 -16
-16 -13 -5 4 -12 0 -14 -6 -4 -10 -6 -9 -6 1 -1 11 -5 10 -20 -3 -24 -21 -39
-3 -19 22 11 15 11 15 -2 6 -8 -6 -23 -10 -32 -9 -11 2 -18 -3 -18 -12 0 -13
2 -13 17 -2 11 10 14 10 9 2 -4 -8 -2 -13 4 -13 6 0 8 -5 4 -11 -4 -8 -9 -7
-15 2 -7 11 -9 11 -9 -1 0 -12 -2 -13 -9 -1 -7 11 -9 11 -14 0 -4 -8 -4 -2 -1
12 3 16 1 30 -7 34 -7 5 -10 4 -6 -2 4 -6 0 -16 -8 -23 -12 -10 -16 -8 -23 11
l-9 23 -17 -26z"/>
<path d="M6658 1772 c-9 -9 -14 -25 -13 -34 2 -10 -1 -20 -6 -24 -8 -5 -13 9
-10 28 0 4 -53 -32 -119 -80 -475 -347 -1026 -560 -1645 -638 -195 -25 -596
-25 -795 -1 -559 68 -1100 265 -1533 559 -32 22 -61 37 -64 34 -4 -3 -1 -6 6
-6 7 0 9 -5 6 -10 -5 -8 -11 -7 -21 1 -7 6 -12 15 -9 19 2 4 -5 16 -18 26
l-22 19 19 -22 c11 -13 16 -23 11 -23 -4 0 -1 -7 6 -16 16 -19 23 -58 9 -49
-5 3 -10 12 -10 19 0 8 -7 19 -15 26 -8 7 -13 16 -10 20 3 4 -3 14 -13 21 -15
13 -16 12 -3 -3 7 -10 10 -18 6 -18 -5 0 0 -9 9 -19 10 -11 16 -28 13 -38 -17
-59 -18 -68 -8 -53 8 12 12 10 20 -10 7 -19 10 -20 10 -7 1 10 5 16 11 12 5
-3 7 -13 4 -23 -5 -14 -4 -15 5 -2 9 13 11 13 11 0 0 -13 1 -13 10 0 9 13 10
13 10 0 0 -13 1 -13 10 0 9 13 10 13 10 0 0 -13 1 -13 10 0 9 13 10 13 10 0 0
-13 1 -13 10 0 9 13 10 13 10 0 0 -13 1 -13 10 0 9 13 10 13 10 0 0 -13 1 -13
10 0 9 13 10 13 10 0 1 -12 3 -11 11 3 5 9 14 17 19 17 6 0 10 -8 10 -17 0
-15 2 -16 10 -3 7 11 10 11 10 2 0 -7 4 -11 9 -8 4 3 16 -3 26 -14 10 -11 21
-18 24 -15 4 2 7 -6 8 -18 1 -12 3 -32 6 -44 4 -14 -2 -27 -16 -40 -22 -18
-22 -18 -5 2 23 28 23 27 9 53 -10 19 -15 21 -27 12 -7 -7 -11 -17 -8 -22 4
-6 10 -5 15 3 6 10 8 7 6 -9 -2 -12 -9 -27 -15 -32 -9 -7 -9 -7 -2 2 6 7 6 16
-2 25 -9 11 -14 11 -29 -3 -17 -15 -18 -14 -14 16 4 26 2 30 -9 21 -8 -7 -12
-21 -8 -34 3 -12 2 -20 -1 -17 -11 11 -17 69 -7 75 5 3 10 12 10 18 -1 7 -9 2
-19 -10 -11 -13 -17 -33 -15 -45 l5 -23 -10 23 c-12 25 -27 31 -17 6 3 -8 2
-12 -4 -9 -5 3 -7 20 -3 37 4 22 3 29 -6 24 -6 -4 -9 -11 -7 -15 3 -4 1 -13
-5 -21 -6 -11 -9 -12 -9 -2 0 7 -5 10 -11 7 -6 -4 -13 3 -16 15 -4 16 -8 18
-14 8 -7 -10 -9 -11 -9 0 0 7 -4 11 -9 8 -5 -3 -20 5 -35 19 -14 13 -26 21
-26 18 0 -3 -16 7 -37 23 l-36 28 -151 -23 c-610 -93 -1412 -274 -1979 -447
-16 -5 -13 -15 29 -92 259 -481 735 -836 1261 -941 190 -38 287 -41 1403 -41
l1088 0 95 44 c295 137 739 275 1242 385 233 51 1117 223 1121 218 2 -2 -101
-36 -229 -76 -950 -298 -1191 -383 -1487 -524 l-95 -45 383 -1 383 -1 92 56
c213 130 534 267 777 334 500 136 764 271 844 432 81 162 -35 326 -329 468
-108 53 -322 130 -359 130 -29 0 -25 19 8 40 27 16 34 26 29 43 -3 12 -6 32
-7 44 -3 25 -15 43 -17 25 -1 -7 -2 -18 -3 -24 -1 -7 0 -17 3 -23 11 -20 9
-34 -7 -47 -15 -11 -15 -11 -6 2 13 19 12 40 -1 39 -5 -1 -9 -6 -7 -11 1 -6
-2 -16 -8 -22 -5 -7 -6 -17 -2 -21 4 -5 1 -5 -6 0 -10 5 -11 10 -3 18 20 20
12 31 -9 12 -11 -10 -16 -23 -13 -29 11 -17 12 -35 3 -41 -5 -3 -7 3 -5 12 1
10 -3 24 -9 32 -16 20 -16 79 0 92 8 6 14 8 14 3 0 -4 7 1 15 12 15 19 15 19
9 -1 -3 -12 1 -9 11 8 18 31 27 35 19 10 -3 -10 2 -5 12 11 16 28 17 29 30 11
8 -10 14 -23 14 -29 0 -5 3 -7 6 -4 3 4 1 16 -6 27 -6 12 -7 21 -2 21 4 0 13
-12 19 -27 l12 -28 -5 30 c-3 25 -3 26 5 10 l10 -20 1 20 c1 16 4 14 14 -10
l13 -30 8 30 c7 26 9 27 16 10 7 -19 8 -19 8 -1 1 11 4 17 7 13 3 -3 3 -15 -1
-28 -6 -17 -9 -19 -17 -8 -8 12 -9 12 -6 0 7 -26 23 -22 61 13 20 18 37 31 37
29 0 -3 7 0 15 7 17 14 20 56 5 65 -7 4 -7 13 0 26 6 10 8 19 4 19 -3 0 -1 6
5 13 8 10 7 14 -2 14 -7 0 -14 -10 -14 -21 -1 -12 -4 -30 -6 -41 -3 -11 -6
-22 -6 -25 -1 -3 -5 2 -10 10 -6 8 -7 19 -3 25 9 14 10 55 2 60 -4 3 -14 -3
-22 -13z"/>
<path d="M6476 1605 c-3 -9 -3 -22 1 -28 4 -6 8 -22 10 -36 1 -15 3 -31 4 -38
2 -7 29 -14 68 -18 118 -11 314 -36 401 -51 254 -44 577 -135 734 -207 487
-226 496 -587 27 -1070 l-76 -78 75 27 c438 155 800 467 1029 885 22 42 41 80
41 86 0 14 -401 123 -801 217 -392 92 -927 193 -1307 247 -53 7 -86 17 -89 25
-3 8 -9 11 -14 8 -5 -3 -12 2 -15 11 -6 14 -8 14 -20 -2 -7 -10 -14 -13 -14
-8 0 6 -6 -1 -14 -15 -7 -14 -11 -29 -8 -34 3 -5 10 2 17 14 7 13 20 25 29 26
9 1 13 -2 9 -9 -4 -7 0 -8 13 -3 10 4 3 -6 -16 -23 -31 -25 -37 -27 -51 -15
-16 14 -22 47 -7 38 12 -8 9 18 -6 45 -11 20 -14 21 -20 6z"/>
</g>
</svg>
