<?xml version="1.0" standalone="no"?>
<!DOCTYPE svg PUBLIC "-//W3C//DTD SVG 20010904//EN"
 "http://www.w3.org/TR/2001/REC-SVG-20010904/DTD/svg10.dtd">
<svg version="1.0" xmlns="http://www.w3.org/2000/svg"
 width="225.000000pt" height="225.000000pt" viewBox="0 0 225.000000 225.000000"
 preserveAspectRatio="xMidYMid meet">
<metadata>
Created by potrace 1.16, written by Peter Selinger 2001-2019
</metadata>
<g transform="translate(0.000000,225.000000) scale(0.100000,-0.100000)"
fill="#000000" stroke="none">
<path d="M1290 2153 c-263 -9 -468 -57 -759 -177 -233 -96 -443 -260 -401
-312 17 -19 33 -18 88 10 51 26 313 103 460 136 58 13 128 20 190 20 97 0 99
0 128 31 26 27 73 59 89 59 3 0 5 -5 5 -12 0 -6 10 -27 23 -45 20 -31 26 -34
58 -29 20 3 58 1 85 -5 27 -6 61 -13 76 -16 19 -4 37 3 64 23 l37 29 -7 -53
c-6 -47 -4 -55 17 -76 30 -29 105 -69 212 -111 93 -37 95 -40 70 -156 -9 -41
-32 -153 -51 -249 -66 -329 -114 -555 -139 -650 -37 -142 -62 -267 -70 -347
-7 -69 -6 -73 20 -98 20 -21 32 -25 53 -20 44 10 54 29 68 117 22 148 75 421
99 518 14 52 34 154 45 225 12 72 30 168 41 215 11 47 27 114 35 150 18 80 73
210 90 210 6 0 32 -9 58 -21 40 -17 52 -19 82 -9 51 17 99 70 112 123 7 25 28
78 47 118 19 40 35 84 35 97 0 37 -41 69 -106 82 -136 27 -132 24 -131 80 1
39 -4 55 -22 74 -62 66 -147 71 -183 10 -25 -42 -43 -43 -111 -5 -28 16 -75
34 -103 41 -63 14 -216 26 -304 23z m270 -102 c19 -10 61 -32 94 -50 86 -48
282 -121 351 -132 33 -5 75 -12 93 -15 23 -3 32 -10 32 -24 0 -19 -65 -219
-74 -228 -6 -6 -146 41 -146 49 0 4 12 14 26 24 20 13 23 19 13 31 -16 19 -56
17 -107 -6 -43 -19 -92 -18 -92 2 0 9 20 18 113 52 33 12 47 23 47 36 0 44
-68 33 -176 -27 l-62 -34 -68 22 c-38 12 -75 27 -81 32 -8 6 -13 34 -13 72 0
107 -12 115 -93 63 l-49 -32 -82 12 c-45 7 -94 12 -109 12 -16 0 -30 8 -37 19
-16 30 -40 51 -59 51 -9 0 -42 -15 -73 -33 -52 -32 -62 -34 -174 -40 -66 -4
-164 -16 -219 -27 -54 -11 -100 -19 -102 -17 -7 8 26 27 98 57 216 91 405 133
664 150 152 10 240 4 285 -19z"/>
<path d="M625 1590 c-206 -42 -482 -258 -575 -452 -35 -72 -40 -91 -40 -153 0
-99 20 -158 92 -267 96 -147 123 -217 102 -272 -3 -9 -32 -32 -64 -51 -59 -36
-108 -97 -131 -164 -13 -38 1 -65 23 -43 23 23 38 13 38 -23 0 -50 24 -46 90
15 29 27 55 48 57 46 2 -2 -10 -26 -28 -54 -17 -28 -28 -55 -24 -61 13 -21 44
-10 71 24 19 26 34 35 55 35 23 0 41 13 81 55 28 30 53 53 56 51 2 -3 -6 -30
-17 -61 -29 -76 -12 -98 41 -55 24 19 26 19 42 1 9 -9 16 -27 16 -39 0 -30 40
-29 69 2 12 13 32 26 44 29 12 2 30 8 39 12 13 5 15 2 11 -14 -5 -21 11 -51
28 -51 11 0 75 70 106 115 31 45 42 44 36 -4 -6 -45 4 -55 37 -38 25 13 36 30
70 111 28 69 37 49 10 -23 -24 -64 -19 -90 20 -111 27 -14 54 1 70 40 17 42
31 37 28 -10 -1 -22 1 -43 5 -47 12 -11 75 24 93 52 23 36 32 31 36 -17 3 -38
6 -43 30 -46 22 -3 29 2 34 22 5 21 11 25 28 20 14 -3 31 2 46 14 22 18 23 21
10 52 -7 18 -42 69 -78 114 -129 163 -129 194 -3 316 43 41 90 97 105 124 47
81 35 125 -120 443 -65 131 -82 158 -132 204 -72 66 -159 123 -228 149 -58 21
-197 26 -279 10z m204 -329 c52 -27 98 -83 134 -161 25 -54 31 -81 35 -166 l4
-101 -76 -84 -76 -83 6 -96 c6 -87 5 -97 -14 -113 -31 -28 -136 -42 -206 -27
-52 11 -59 15 -72 46 -8 18 -14 46 -14 61 -1 37 -29 97 -81 175 -50 73 -88
161 -89 201 0 80 75 210 159 271 127 93 213 116 290 77z"/>
<path d="M503 965 c-29 -20 -29 -48 -2 -91 44 -71 114 -95 145 -49 45 69 -76
188 -143 140z"/>
<path d="M799 941 c-47 -47 -53 -91 -15 -116 21 -14 28 -14 58 -2 45 19 78 62
78 101 0 69 -61 77 -121 17z"/>
</g>
</svg>
