<?xml version="1.0" standalone="no"?>
<!DOCTYPE svg PUBLIC "-//W3C//DTD SVG 20010904//EN"
 "http://www.w3.org/TR/2001/REC-SVG-20010904/DTD/svg10.dtd">
<svg version="1.0" xmlns="http://www.w3.org/2000/svg"
 width="512.000000pt" height="512.000000pt" viewBox="0 0 512.000000 512.000000"
 preserveAspectRatio="xMidYMid meet">
<metadata>
Created by potrace 1.16, written by Peter Selinger 2001-2019
</metadata>
<g transform="translate(0.000000,512.000000) scale(0.100000,-0.100000)"
fill="#000000" stroke="none">
<path d="M2310 5053 c-461 -48 -890 -217 -1270 -501 -218 -163 -457 -427 -610
-672 -181 -290 -309 -652 -355 -1003 -20 -156 -20 -478 0 -634 73 -555 320
-1059 715 -1453 323 -324 728 -554 1162 -660 233 -57 309 -65 613 -65 248 0
295 3 408 23 270 49 501 126 732 246 389 200 700 478 943 841 84 125 217 387
265 524 73 203 128 453 142 650 l7 84 -1312 1312 -1312 1312 -46 0 c-26 0 -63
-2 -82 -4z m1094 -1472 c291 -97 482 -295 557 -576 30 -111 30 -279 0 -390
-61 -229 -216 -419 -426 -520 -172 -83 -116 -79 -967 -82 -417 -2 -758 -7
-758 -11 0 -4 54 -61 120 -127 l120 -120 -120 -120 -120 -120 -335 335 -335
335 335 335 335 335 122 -122 123 -123 -125 -125 -125 -125 721 0 c784 0 786
0 884 57 161 95 252 286 222 464 -16 93 -52 166 -114 234 -59 65 -114 100
-199 126 -57 18 -102 19 -705 19 l-644 0 0 175 0 176 683 -3 682 -3 69 -24z"/>
</g>
</svg>
