<?xml version="1.0" standalone="no"?>
<!DOCTYPE svg PUBLIC "-//W3C//DTD SVG 20010904//EN"
 "http://www.w3.org/TR/2001/REC-SVG-20010904/DTD/svg10.dtd">
<svg version="1.0" xmlns="http://www.w3.org/2000/svg"
 width="512.000000pt" height="512.000000pt" viewBox="0 0 512.000000 512.000000"
 preserveAspectRatio="xMidYMid meet">
<metadata>
Created by potrace 1.16, written by Peter Selinger 2001-2019
</metadata>
<g transform="translate(0.000000,512.000000) scale(0.100000,-0.100000)"
fill="#000000" stroke="none">
<path d="M2385 4709 c-509 -68 -957 -295 -1297 -656 -191 -202 -315 -390 -418
-630 -37 -85 -46 -99 -55 -85 -7 9 -35 57 -64 105 -29 48 -57 87 -61 85 -28
-11 -270 -164 -270 -171 0 -16 413 -688 421 -685 29 12 679 415 679 422 0 9
-160 276 -166 276 -2 0 -44 -25 -94 -55 -49 -30 -90 -50 -90 -44 0 6 23 56 52
111 178 347 438 612 778 791 421 223 911 270 1369 132 277 -83 518 -226 735
-435 290 -280 479 -649 538 -1054 l12 -86 41 1 c22 0 94 6 160 12 l120 12 -3
65 c-8 181 -95 483 -202 698 -186 376 -458 674 -816 894 -226 139 -486 235
-768 284 -108 19 -496 27 -601 13z"/>
<path d="M4330 2304 c-179 -113 -331 -208 -339 -213 -11 -7 3 -37 70 -145 46
-75 89 -136 95 -136 5 0 49 24 97 54 l86 55 -25 -57 c-193 -437 -579 -791
-1046 -960 -567 -206 -1193 -111 -1693 256 -388 284 -655 745 -720 1245 -5 39
-10 47 -27 47 -31 0 -260 -21 -285 -26 -24 -5 -24 1 3 -174 93 -593 457 -1135
986 -1468 659 -416 1521 -429 2203 -35 402 233 733 609 906 1027 l37 89 44
-69 c24 -38 54 -86 67 -107 13 -22 28 -34 34 -31 46 26 267 167 267 170 0 9
-424 684 -429 683 -3 0 -152 -92 -331 -205z"/>
</g>
</svg>
