<?xml version="1.0" standalone="no"?>
<!DOCTYPE svg PUBLIC "-//W3C//DTD SVG 20010904//EN"
 "http://www.w3.org/TR/2001/REC-SVG-20010904/DTD/svg10.dtd">
<svg version="1.0" xmlns="http://www.w3.org/2000/svg"
 width="512.000000pt" height="512.000000pt" viewBox="0 0 512.000000 512.000000"
 preserveAspectRatio="xMidYMid meet">
<metadata>
Created by potrace 1.16, written by Peter Selinger 2001-2019
</metadata>
<g transform="translate(0.000000,512.000000) scale(0.100000,-0.100000)"
fill="#000000" stroke="none">
<path d="M1595 5096 c-68 -31 -130 -101 -149 -167 -21 -68 -20 -69 9 -215 88
-435 252 -869 474 -1251 l71 -123 0 -256 c0 -259 -15 -604 -30 -704 -4 -30
-27 -100 -50 -155 -175 -423 -299 -992 -370 -1700 -34 -336 -29 -394 38 -462
49 -49 107 -66 201 -61 94 5 154 36 207 106 40 51 49 93 70 327 37 425 129
934 224 1255 l20 67 45 -10 c33 -8 47 -16 50 -31 2 -12 16 -169 30 -351 52
-664 112 -1180 144 -1243 55 -109 181 -140 314 -79 93 43 154 125 164 221 3
28 -7 145 -21 261 -33 271 -48 433 -91 970 -19 242 -37 456 -40 476 -4 23 1
52 14 85 28 73 44 238 67 691 l6 133 33 -28 c17 -15 83 -71 146 -126 63 -54
132 -107 154 -117 48 -22 151 -25 199 -5 79 33 147 126 162 221 6 40 -35 418
-61 570 -42 238 -71 299 -165 348 -50 26 -62 28 -130 25 -126 -8 -216 -72
-246 -176 l-16 -54 -33 32 c-18 17 -49 37 -70 44 -26 9 -50 30 -79 68 -132
177 -321 240 -549 183 -27 -7 -29 -4 -86 116 -134 281 -225 558 -305 930 -33
149 -99 209 -232 209 -51 0 -82 -6 -119 -24z"/>
<path d="M2661 4764 c-148 -40 -271 -161 -317 -313 -18 -61 -18 -195 1 -258
37 -124 124 -224 244 -282 67 -31 87 -36 172 -39 139 -6 238 29 331 116 190
177 196 475 14 658 -114 114 -289 160 -445 118z"/>
</g>
</svg>
